<?xml version="1.0" encoding="utf-8" standalone="no"?>
<!DOCTYPE svg PUBLIC "-//W3C//DTD SVG 1.1//EN"
  "http://www.w3.org/Graphics/SVG/1.1/DTD/svg11.dtd">
<!-- Created with matplotlib (https://matplotlib.org/) -->
<svg height="576pt" version="1.1" viewBox="0 0 1008 576" width="1008pt" xmlns="http://www.w3.org/2000/svg" xmlns:xlink="http://www.w3.org/1999/xlink">
 <defs>
  <style type="text/css">
*{stroke-linecap:butt;stroke-linejoin:round;}
  </style>
 </defs>
 <g id="figure_1">
  <g id="patch_1">
   <path d="M 0 576 
L 1008 576 
L 1008 0 
L 0 0 
z
" style="fill:#ffffff;"/>
  </g>
  <g id="axes_1">
   <g id="patch_2">
    <path d="M 126 266.792727 
L 355.764706 266.792727 
L 355.764706 69.12 
L 126 69.12 
z
" style="fill:#ffffff;"/>
   </g>
   <g id="patch_3">
    <path clip-path="url(#p1af739183d)" d="M 136.44385 266.792727 
L 140.62139 266.792727 
L 140.62139 263.75628 
L 136.44385 263.75628 
z
" style="opacity:0.5;"/>
   </g>
   <g id="patch_4">
    <path clip-path="url(#p1af739183d)" d="M 140.62139 266.792727 
L 144.79893 266.792727 
L 144.79893 266.792727 
L 140.62139 266.792727 
z
" style="opacity:0.5;"/>
   </g>
   <g id="patch_5">
    <path clip-path="url(#p1af739183d)" d="M 144.79893 266.792727 
L 148.976471 266.792727 
L 148.976471 266.792727 
L 144.79893 266.792727 
z
" style="opacity:0.5;"/>
   </g>
   <g id="patch_6">
    <path clip-path="url(#p1af739183d)" d="M 148.976471 266.792727 
L 153.154011 266.792727 
L 153.154011 263.75628 
L 148.976471 263.75628 
z
" style="opacity:0.5;"/>
   </g>
   <g id="patch_7">
    <path clip-path="url(#p1af739183d)" d="M 153.154011 266.792727 
L 157.331551 266.792727 
L 157.331551 260.719832 
L 153.154011 260.719832 
z
" style="opacity:0.5;"/>
   </g>
   <g id="patch_8">
    <path clip-path="url(#p1af739183d)" d="M 157.331551 266.792727 
L 161.509091 266.792727 
L 161.509091 260.719832 
L 157.331551 260.719832 
z
" style="opacity:0.5;"/>
   </g>
   <g id="patch_9">
    <path clip-path="url(#p1af739183d)" d="M 161.509091 266.792727 
L 165.686631 266.792727 
L 165.686631 263.75628 
L 161.509091 263.75628 
z
" style="opacity:0.5;"/>
   </g>
   <g id="patch_10">
    <path clip-path="url(#p1af739183d)" d="M 165.686631 266.792727 
L 169.864171 266.792727 
L 169.864171 254.646938 
L 165.686631 254.646938 
z
" style="opacity:0.5;"/>
   </g>
   <g id="patch_11">
    <path clip-path="url(#p1af739183d)" d="M 169.864171 266.792727 
L 174.041711 266.792727 
L 174.041711 245.537595 
L 169.864171 245.537595 
z
" style="opacity:0.5;"/>
   </g>
   <g id="patch_12">
    <path clip-path="url(#p1af739183d)" d="M 174.041711 266.792727 
L 178.219251 266.792727 
L 178.219251 233.391806 
L 174.041711 233.391806 
z
" style="opacity:0.5;"/>
   </g>
   <g id="patch_13">
    <path clip-path="url(#p1af739183d)" d="M 178.219251 266.792727 
L 182.396791 266.792727 
L 182.396791 221.246016 
L 178.219251 221.246016 
z
" style="opacity:0.5;"/>
   </g>
   <g id="patch_14">
    <path clip-path="url(#p1af739183d)" d="M 182.396791 266.792727 
L 186.574332 266.792727 
L 186.574332 236.428253 
L 182.396791 236.428253 
z
" style="opacity:0.5;"/>
   </g>
   <g id="patch_15">
    <path clip-path="url(#p1af739183d)" d="M 186.574332 266.792727 
L 190.751872 266.792727 
L 190.751872 218.209568 
L 186.574332 218.209568 
z
" style="opacity:0.5;"/>
   </g>
   <g id="patch_16">
    <path clip-path="url(#p1af739183d)" d="M 190.751872 266.792727 
L 194.929412 266.792727 
L 194.929412 206.063779 
L 190.751872 206.063779 
z
" style="opacity:0.5;"/>
   </g>
   <g id="patch_17">
    <path clip-path="url(#p1af739183d)" d="M 194.929412 266.792727 
L 199.106952 266.792727 
L 199.106952 181.772199 
L 194.929412 181.772199 
z
" style="opacity:0.5;"/>
   </g>
   <g id="patch_18">
    <path clip-path="url(#p1af739183d)" d="M 199.106952 266.792727 
L 203.284492 266.792727 
L 203.284492 209.100226 
L 199.106952 209.100226 
z
" style="opacity:0.5;"/>
   </g>
   <g id="patch_19">
    <path clip-path="url(#p1af739183d)" d="M 203.284492 266.792727 
L 207.462032 266.792727 
L 207.462032 184.808647 
L 203.284492 184.808647 
z
" style="opacity:0.5;"/>
   </g>
   <g id="patch_20">
    <path clip-path="url(#p1af739183d)" d="M 207.462032 266.792727 
L 211.639572 266.792727 
L 211.639572 172.662857 
L 207.462032 172.662857 
z
" style="opacity:0.5;"/>
   </g>
   <g id="patch_21">
    <path clip-path="url(#p1af739183d)" d="M 211.639572 266.792727 
L 215.817112 266.792727 
L 215.817112 154.444173 
L 211.639572 154.444173 
z
" style="opacity:0.5;"/>
   </g>
   <g id="patch_22">
    <path clip-path="url(#p1af739183d)" d="M 215.817112 266.792727 
L 219.994652 266.792727 
L 219.994652 148.371278 
L 215.817112 148.371278 
z
" style="opacity:0.5;"/>
   </g>
   <g id="patch_23">
    <path clip-path="url(#p1af739183d)" d="M 219.994652 266.792727 
L 224.172193 266.792727 
L 224.172193 111.933909 
L 219.994652 111.933909 
z
" style="opacity:0.5;"/>
   </g>
   <g id="patch_24">
    <path clip-path="url(#p1af739183d)" d="M 224.172193 266.792727 
L 228.349733 266.792727 
L 228.349733 108.897461 
L 224.172193 108.897461 
z
" style="opacity:0.5;"/>
   </g>
   <g id="patch_25">
    <path clip-path="url(#p1af739183d)" d="M 228.349733 266.792727 
L 232.527273 266.792727 
L 232.527273 78.532987 
L 228.349733 78.532987 
z
" style="opacity:0.5;"/>
   </g>
   <g id="patch_26">
    <path clip-path="url(#p1af739183d)" d="M 232.527273 266.792727 
L 236.704813 266.792727 
L 236.704813 99.788119 
L 232.527273 99.788119 
z
" style="opacity:0.5;"/>
   </g>
   <g id="patch_27">
    <path clip-path="url(#p1af739183d)" d="M 236.704813 266.792727 
L 240.882353 266.792727 
L 240.882353 102.824566 
L 236.704813 102.824566 
z
" style="opacity:0.5;"/>
   </g>
   <g id="patch_28">
    <path clip-path="url(#p1af739183d)" d="M 240.882353 266.792727 
L 245.059893 266.792727 
L 245.059893 166.589962 
L 240.882353 166.589962 
z
" style="opacity:0.5;"/>
   </g>
   <g id="patch_29">
    <path clip-path="url(#p1af739183d)" d="M 245.059893 266.792727 
L 249.237433 266.792727 
L 249.237433 118.006804 
L 245.059893 118.006804 
z
" style="opacity:0.5;"/>
   </g>
   <g id="patch_30">
    <path clip-path="url(#p1af739183d)" d="M 249.237433 266.792727 
L 253.414973 266.792727 
L 253.414973 96.751672 
L 249.237433 96.751672 
z
" style="opacity:0.5;"/>
   </g>
   <g id="patch_31">
    <path clip-path="url(#p1af739183d)" d="M 253.414973 266.792727 
L 257.592513 266.792727 
L 257.592513 136.225488 
L 253.414973 136.225488 
z
" style="opacity:0.5;"/>
   </g>
   <g id="patch_32">
    <path clip-path="url(#p1af739183d)" d="M 257.592513 266.792727 
L 261.770053 266.792727 
L 261.770053 127.116146 
L 257.592513 127.116146 
z
" style="opacity:0.5;"/>
   </g>
   <g id="patch_33">
    <path clip-path="url(#p1af739183d)" d="M 261.770053 266.792727 
L 265.947594 266.792727 
L 265.947594 142.298383 
L 261.770053 142.298383 
z
" style="opacity:0.5;"/>
   </g>
   <g id="patch_34">
    <path clip-path="url(#p1af739183d)" d="M 265.947594 266.792727 
L 270.125134 266.792727 
L 270.125134 166.589962 
L 265.947594 166.589962 
z
" style="opacity:0.5;"/>
   </g>
   <g id="patch_35">
    <path clip-path="url(#p1af739183d)" d="M 270.125134 266.792727 
L 274.302674 266.792727 
L 274.302674 151.407725 
L 270.125134 151.407725 
z
" style="opacity:0.5;"/>
   </g>
   <g id="patch_36">
    <path clip-path="url(#p1af739183d)" d="M 274.302674 266.792727 
L 278.480214 266.792727 
L 278.480214 169.62641 
L 274.302674 169.62641 
z
" style="opacity:0.5;"/>
   </g>
   <g id="patch_37">
    <path clip-path="url(#p1af739183d)" d="M 278.480214 266.792727 
L 282.657754 266.792727 
L 282.657754 199.990884 
L 278.480214 199.990884 
z
" style="opacity:0.5;"/>
   </g>
   <g id="patch_38">
    <path clip-path="url(#p1af739183d)" d="M 282.657754 266.792727 
L 286.835294 266.792727 
L 286.835294 221.246016 
L 282.657754 221.246016 
z
" style="opacity:0.5;"/>
   </g>
   <g id="patch_39">
    <path clip-path="url(#p1af739183d)" d="M 286.835294 266.792727 
L 291.012834 266.792727 
L 291.012834 233.391806 
L 286.835294 233.391806 
z
" style="opacity:0.5;"/>
   </g>
   <g id="patch_40">
    <path clip-path="url(#p1af739183d)" d="M 291.012834 266.792727 
L 295.190374 266.792727 
L 295.190374 248.574043 
L 291.012834 248.574043 
z
" style="opacity:0.5;"/>
   </g>
   <g id="patch_41">
    <path clip-path="url(#p1af739183d)" d="M 295.190374 266.792727 
L 299.367914 266.792727 
L 299.367914 251.61049 
L 295.190374 251.61049 
z
" style="opacity:0.5;"/>
   </g>
   <g id="patch_42">
    <path clip-path="url(#p1af739183d)" d="M 299.367914 266.792727 
L 303.545455 266.792727 
L 303.545455 242.501148 
L 299.367914 242.501148 
z
" style="opacity:0.5;"/>
   </g>
   <g id="patch_43">
    <path clip-path="url(#p1af739183d)" d="M 303.545455 266.792727 
L 307.722995 266.792727 
L 307.722995 263.75628 
L 303.545455 263.75628 
z
" style="opacity:0.5;"/>
   </g>
   <g id="patch_44">
    <path clip-path="url(#p1af739183d)" d="M 307.722995 266.792727 
L 311.900535 266.792727 
L 311.900535 263.75628 
L 307.722995 263.75628 
z
" style="opacity:0.5;"/>
   </g>
   <g id="patch_45">
    <path clip-path="url(#p1af739183d)" d="M 311.900535 266.792727 
L 316.078075 266.792727 
L 316.078075 251.61049 
L 311.900535 251.61049 
z
" style="opacity:0.5;"/>
   </g>
   <g id="patch_46">
    <path clip-path="url(#p1af739183d)" d="M 316.078075 266.792727 
L 320.255615 266.792727 
L 320.255615 251.61049 
L 316.078075 251.61049 
z
" style="opacity:0.5;"/>
   </g>
   <g id="patch_47">
    <path clip-path="url(#p1af739183d)" d="M 320.255615 266.792727 
L 324.433155 266.792727 
L 324.433155 263.75628 
L 320.255615 263.75628 
z
" style="opacity:0.5;"/>
   </g>
   <g id="patch_48">
    <path clip-path="url(#p1af739183d)" d="M 324.433155 266.792727 
L 328.610695 266.792727 
L 328.610695 263.75628 
L 324.433155 263.75628 
z
" style="opacity:0.5;"/>
   </g>
   <g id="patch_49">
    <path clip-path="url(#p1af739183d)" d="M 328.610695 266.792727 
L 332.788235 266.792727 
L 332.788235 266.792727 
L 328.610695 266.792727 
z
" style="opacity:0.5;"/>
   </g>
   <g id="patch_50">
    <path clip-path="url(#p1af739183d)" d="M 332.788235 266.792727 
L 336.965775 266.792727 
L 336.965775 266.792727 
L 332.788235 266.792727 
z
" style="opacity:0.5;"/>
   </g>
   <g id="patch_51">
    <path clip-path="url(#p1af739183d)" d="M 336.965775 266.792727 
L 341.143316 266.792727 
L 341.143316 263.75628 
L 336.965775 263.75628 
z
" style="opacity:0.5;"/>
   </g>
   <g id="patch_52">
    <path clip-path="url(#p1af739183d)" d="M 341.143316 266.792727 
L 345.320856 266.792727 
L 345.320856 260.719832 
L 341.143316 260.719832 
z
" style="opacity:0.5;"/>
   </g>
   <g id="matplotlib.axis_1">
    <g id="xtick_1">
     <g id="line2d_1">
      <defs>
       <path d="M 0 0 
L 0 3.5 
" id="m72592c08ba" style="stroke:#000000;stroke-width:0.8;"/>
      </defs>
      <g>
       <use style="stroke:#000000;stroke-width:0.8;" x="176.863234" xlink:href="#m72592c08ba" y="266.792727"/>
      </g>
     </g>
     <g id="text_1">
      <!-- −2 -->
      <defs>
       <path d="M 10.59375 35.5 
L 73.1875 35.5 
L 73.1875 27.203125 
L 10.59375 27.203125 
z
" id="DejaVuSans-8722"/>
       <path d="M 19.1875 8.296875 
L 53.609375 8.296875 
L 53.609375 0 
L 7.328125 0 
L 7.328125 8.296875 
Q 12.9375 14.109375 22.625 23.890625 
Q 32.328125 33.6875 34.8125 36.53125 
Q 39.546875 41.84375 41.421875 45.53125 
Q 43.3125 49.21875 43.3125 52.78125 
Q 43.3125 58.59375 39.234375 62.25 
Q 35.15625 65.921875 28.609375 65.921875 
Q 23.96875 65.921875 18.8125 64.3125 
Q 13.671875 62.703125 7.8125 59.421875 
L 7.8125 69.390625 
Q 13.765625 71.78125 18.9375 73 
Q 24.125 74.21875 28.421875 74.21875 
Q 39.75 74.21875 46.484375 68.546875 
Q 53.21875 62.890625 53.21875 53.421875 
Q 53.21875 48.921875 51.53125 44.890625 
Q 49.859375 40.875 45.40625 35.40625 
Q 44.1875 33.984375 37.640625 27.21875 
Q 31.109375 20.453125 19.1875 8.296875 
z
" id="DejaVuSans-50"/>
      </defs>
      <g transform="translate(169.492141 281.391165)scale(0.1 -0.1)">
       <use xlink:href="#DejaVuSans-8722"/>
       <use x="83.789062" xlink:href="#DejaVuSans-50"/>
      </g>
     </g>
    </g>
    <g id="xtick_2">
     <g id="line2d_2">
      <g>
       <use style="stroke:#000000;stroke-width:0.8;" x="237.748605" xlink:href="#m72592c08ba" y="266.792727"/>
      </g>
     </g>
     <g id="text_2">
      <!-- 0 -->
      <defs>
       <path d="M 31.78125 66.40625 
Q 24.171875 66.40625 20.328125 58.90625 
Q 16.5 51.421875 16.5 36.375 
Q 16.5 21.390625 20.328125 13.890625 
Q 24.171875 6.390625 31.78125 6.390625 
Q 39.453125 6.390625 43.28125 13.890625 
Q 47.125 21.390625 47.125 36.375 
Q 47.125 51.421875 43.28125 58.90625 
Q 39.453125 66.40625 31.78125 66.40625 
z
M 31.78125 74.21875 
Q 44.046875 74.21875 50.515625 64.515625 
Q 56.984375 54.828125 56.984375 36.375 
Q 56.984375 17.96875 50.515625 8.265625 
Q 44.046875 -1.421875 31.78125 -1.421875 
Q 19.53125 -1.421875 13.0625 8.265625 
Q 6.59375 17.96875 6.59375 36.375 
Q 6.59375 54.828125 13.0625 64.515625 
Q 19.53125 74.21875 31.78125 74.21875 
z
" id="DejaVuSans-48"/>
      </defs>
      <g transform="translate(234.567355 281.391165)scale(0.1 -0.1)">
       <use xlink:href="#DejaVuSans-48"/>
      </g>
     </g>
    </g>
    <g id="xtick_3">
     <g id="line2d_3">
      <g>
       <use style="stroke:#000000;stroke-width:0.8;" x="298.633976" xlink:href="#m72592c08ba" y="266.792727"/>
      </g>
     </g>
     <g id="text_3">
      <!-- 2 -->
      <g transform="translate(295.452726 281.391165)scale(0.1 -0.1)">
       <use xlink:href="#DejaVuSans-50"/>
      </g>
     </g>
    </g>
   </g>
   <g id="matplotlib.axis_2">
    <g id="ytick_1">
     <g id="line2d_4">
      <defs>
       <path d="M 0 0 
L -3.5 0 
" id="mebeff8e32b" style="stroke:#000000;stroke-width:0.8;"/>
      </defs>
      <g>
       <use style="stroke:#000000;stroke-width:0.8;" x="126" xlink:href="#mebeff8e32b" y="266.792727"/>
      </g>
     </g>
     <g id="text_4">
      <!-- 0 -->
      <g transform="translate(112.6375 270.591946)scale(0.1 -0.1)">
       <use xlink:href="#DejaVuSans-48"/>
      </g>
     </g>
    </g>
    <g id="ytick_2">
     <g id="line2d_5">
      <g>
       <use style="stroke:#000000;stroke-width:0.8;" x="126" xlink:href="#mebeff8e32b" y="236.428253"/>
      </g>
     </g>
     <g id="text_5">
      <!-- 10 -->
      <defs>
       <path d="M 12.40625 8.296875 
L 28.515625 8.296875 
L 28.515625 63.921875 
L 10.984375 60.40625 
L 10.984375 69.390625 
L 28.421875 72.90625 
L 38.28125 72.90625 
L 38.28125 8.296875 
L 54.390625 8.296875 
L 54.390625 0 
L 12.40625 0 
z
" id="DejaVuSans-49"/>
      </defs>
      <g transform="translate(106.275 240.227472)scale(0.1 -0.1)">
       <use xlink:href="#DejaVuSans-49"/>
       <use x="63.623047" xlink:href="#DejaVuSans-48"/>
      </g>
     </g>
    </g>
    <g id="ytick_3">
     <g id="line2d_6">
      <g>
       <use style="stroke:#000000;stroke-width:0.8;" x="126" xlink:href="#mebeff8e32b" y="206.063779"/>
      </g>
     </g>
     <g id="text_6">
      <!-- 20 -->
      <g transform="translate(106.275 209.862998)scale(0.1 -0.1)">
       <use xlink:href="#DejaVuSans-50"/>
       <use x="63.623047" xlink:href="#DejaVuSans-48"/>
      </g>
     </g>
    </g>
    <g id="ytick_4">
     <g id="line2d_7">
      <g>
       <use style="stroke:#000000;stroke-width:0.8;" x="126" xlink:href="#mebeff8e32b" y="175.699305"/>
      </g>
     </g>
     <g id="text_7">
      <!-- 30 -->
      <defs>
       <path d="M 40.578125 39.3125 
Q 47.65625 37.796875 51.625 33 
Q 55.609375 28.21875 55.609375 21.1875 
Q 55.609375 10.40625 48.1875 4.484375 
Q 40.765625 -1.421875 27.09375 -1.421875 
Q 22.515625 -1.421875 17.65625 -0.515625 
Q 12.796875 0.390625 7.625 2.203125 
L 7.625 11.71875 
Q 11.71875 9.328125 16.59375 8.109375 
Q 21.484375 6.890625 26.8125 6.890625 
Q 36.078125 6.890625 40.9375 10.546875 
Q 45.796875 14.203125 45.796875 21.1875 
Q 45.796875 27.640625 41.28125 31.265625 
Q 36.765625 34.90625 28.71875 34.90625 
L 20.21875 34.90625 
L 20.21875 43.015625 
L 29.109375 43.015625 
Q 36.375 43.015625 40.234375 45.921875 
Q 44.09375 48.828125 44.09375 54.296875 
Q 44.09375 59.90625 40.109375 62.90625 
Q 36.140625 65.921875 28.71875 65.921875 
Q 24.65625 65.921875 20.015625 65.03125 
Q 15.375 64.15625 9.8125 62.3125 
L 9.8125 71.09375 
Q 15.4375 72.65625 20.34375 73.4375 
Q 25.25 74.21875 29.59375 74.21875 
Q 40.828125 74.21875 47.359375 69.109375 
Q 53.90625 64.015625 53.90625 55.328125 
Q 53.90625 49.265625 50.4375 45.09375 
Q 46.96875 40.921875 40.578125 39.3125 
z
" id="DejaVuSans-51"/>
      </defs>
      <g transform="translate(106.275 179.498523)scale(0.1 -0.1)">
       <use xlink:href="#DejaVuSans-51"/>
       <use x="63.623047" xlink:href="#DejaVuSans-48"/>
      </g>
     </g>
    </g>
    <g id="ytick_5">
     <g id="line2d_8">
      <g>
       <use style="stroke:#000000;stroke-width:0.8;" x="126" xlink:href="#mebeff8e32b" y="145.33483"/>
      </g>
     </g>
     <g id="text_8">
      <!-- 40 -->
      <defs>
       <path d="M 37.796875 64.3125 
L 12.890625 25.390625 
L 37.796875 25.390625 
z
M 35.203125 72.90625 
L 47.609375 72.90625 
L 47.609375 25.390625 
L 58.015625 25.390625 
L 58.015625 17.1875 
L 47.609375 17.1875 
L 47.609375 0 
L 37.796875 0 
L 37.796875 17.1875 
L 4.890625 17.1875 
L 4.890625 26.703125 
z
" id="DejaVuSans-52"/>
      </defs>
      <g transform="translate(106.275 149.134049)scale(0.1 -0.1)">
       <use xlink:href="#DejaVuSans-52"/>
       <use x="63.623047" xlink:href="#DejaVuSans-48"/>
      </g>
     </g>
    </g>
    <g id="ytick_6">
     <g id="line2d_9">
      <g>
       <use style="stroke:#000000;stroke-width:0.8;" x="126" xlink:href="#mebeff8e32b" y="114.970356"/>
      </g>
     </g>
     <g id="text_9">
      <!-- 50 -->
      <defs>
       <path d="M 10.796875 72.90625 
L 49.515625 72.90625 
L 49.515625 64.59375 
L 19.828125 64.59375 
L 19.828125 46.734375 
Q 21.96875 47.46875 24.109375 47.828125 
Q 26.265625 48.1875 28.421875 48.1875 
Q 40.625 48.1875 47.75 41.5 
Q 54.890625 34.8125 54.890625 23.390625 
Q 54.890625 11.625 47.5625 5.09375 
Q 40.234375 -1.421875 26.90625 -1.421875 
Q 22.3125 -1.421875 17.546875 -0.640625 
Q 12.796875 0.140625 7.71875 1.703125 
L 7.71875 11.625 
Q 12.109375 9.234375 16.796875 8.0625 
Q 21.484375 6.890625 26.703125 6.890625 
Q 35.15625 6.890625 40.078125 11.328125 
Q 45.015625 15.765625 45.015625 23.390625 
Q 45.015625 31 40.078125 35.4375 
Q 35.15625 39.890625 26.703125 39.890625 
Q 22.75 39.890625 18.8125 39.015625 
Q 14.890625 38.140625 10.796875 36.28125 
z
" id="DejaVuSans-53"/>
      </defs>
      <g transform="translate(106.275 118.769575)scale(0.1 -0.1)">
       <use xlink:href="#DejaVuSans-53"/>
       <use x="63.623047" xlink:href="#DejaVuSans-48"/>
      </g>
     </g>
    </g>
    <g id="ytick_7">
     <g id="line2d_10">
      <g>
       <use style="stroke:#000000;stroke-width:0.8;" x="126" xlink:href="#mebeff8e32b" y="84.605882"/>
      </g>
     </g>
     <g id="text_10">
      <!-- 60 -->
      <defs>
       <path d="M 33.015625 40.375 
Q 26.375 40.375 22.484375 35.828125 
Q 18.609375 31.296875 18.609375 23.390625 
Q 18.609375 15.53125 22.484375 10.953125 
Q 26.375 6.390625 33.015625 6.390625 
Q 39.65625 6.390625 43.53125 10.953125 
Q 47.40625 15.53125 47.40625 23.390625 
Q 47.40625 31.296875 43.53125 35.828125 
Q 39.65625 40.375 33.015625 40.375 
z
M 52.59375 71.296875 
L 52.59375 62.3125 
Q 48.875 64.0625 45.09375 64.984375 
Q 41.3125 65.921875 37.59375 65.921875 
Q 27.828125 65.921875 22.671875 59.328125 
Q 17.53125 52.734375 16.796875 39.40625 
Q 19.671875 43.65625 24.015625 45.921875 
Q 28.375 48.1875 33.59375 48.1875 
Q 44.578125 48.1875 50.953125 41.515625 
Q 57.328125 34.859375 57.328125 23.390625 
Q 57.328125 12.15625 50.6875 5.359375 
Q 44.046875 -1.421875 33.015625 -1.421875 
Q 20.359375 -1.421875 13.671875 8.265625 
Q 6.984375 17.96875 6.984375 36.375 
Q 6.984375 53.65625 15.1875 63.9375 
Q 23.390625 74.21875 37.203125 74.21875 
Q 40.921875 74.21875 44.703125 73.484375 
Q 48.484375 72.75 52.59375 71.296875 
z
" id="DejaVuSans-54"/>
      </defs>
      <g transform="translate(106.275 88.405101)scale(0.1 -0.1)">
       <use xlink:href="#DejaVuSans-54"/>
       <use x="63.623047" xlink:href="#DejaVuSans-48"/>
      </g>
     </g>
    </g>
   </g>
   <g id="patch_53">
    <path d="M 126 266.792727 
L 126 69.12 
" style="fill:none;stroke:#000000;stroke-linecap:square;stroke-linejoin:miter;stroke-width:0.8;"/>
   </g>
   <g id="patch_54">
    <path d="M 355.764706 266.792727 
L 355.764706 69.12 
" style="fill:none;stroke:#000000;stroke-linecap:square;stroke-linejoin:miter;stroke-width:0.8;"/>
   </g>
   <g id="patch_55">
    <path d="M 126 266.792727 
L 355.764706 266.792727 
" style="fill:none;stroke:#000000;stroke-linecap:square;stroke-linejoin:miter;stroke-width:0.8;"/>
   </g>
   <g id="patch_56">
    <path d="M 126 69.12 
L 355.764706 69.12 
" style="fill:none;stroke:#000000;stroke-linecap:square;stroke-linejoin:miter;stroke-width:0.8;"/>
   </g>
  </g>
  <g id="axes_2">
   <g id="patch_57">
    <path d="M 401.717647 266.792727 
L 631.482353 266.792727 
L 631.482353 69.12 
L 401.717647 69.12 
z
" style="fill:#ffffff;"/>
   </g>
   <g id="patch_58">
    <path clip-path="url(#p55ddc564ac)" d="M 412.161497 266.792727 
L 416.339037 266.792727 
L 416.339037 263.601884 
L 412.161497 263.601884 
z
" style="opacity:0.5;"/>
   </g>
   <g id="patch_59">
    <path clip-path="url(#p55ddc564ac)" d="M 416.339037 266.792727 
L 420.516578 266.792727 
L 420.516578 263.601884 
L 416.339037 263.601884 
z
" style="opacity:0.5;"/>
   </g>
   <g id="patch_60">
    <path clip-path="url(#p55ddc564ac)" d="M 420.516578 266.792727 
L 424.694118 266.792727 
L 424.694118 266.792727 
L 420.516578 266.792727 
z
" style="opacity:0.5;"/>
   </g>
   <g id="patch_61">
    <path clip-path="url(#p55ddc564ac)" d="M 424.694118 266.792727 
L 428.871658 266.792727 
L 428.871658 263.601884 
L 424.694118 263.601884 
z
" style="opacity:0.5;"/>
   </g>
   <g id="patch_62">
    <path clip-path="url(#p55ddc564ac)" d="M 428.871658 266.792727 
L 433.049198 266.792727 
L 433.049198 260.411041 
L 428.871658 260.411041 
z
" style="opacity:0.5;"/>
   </g>
   <g id="patch_63">
    <path clip-path="url(#p55ddc564ac)" d="M 433.049198 266.792727 
L 437.226738 266.792727 
L 437.226738 263.601884 
L 433.049198 263.601884 
z
" style="opacity:0.5;"/>
   </g>
   <g id="patch_64">
    <path clip-path="url(#p55ddc564ac)" d="M 437.226738 266.792727 
L 441.404278 266.792727 
L 441.404278 260.411041 
L 437.226738 260.411041 
z
" style="opacity:0.5;"/>
   </g>
   <g id="patch_65">
    <path clip-path="url(#p55ddc564ac)" d="M 441.404278 266.792727 
L 445.581818 266.792727 
L 445.581818 250.838512 
L 441.404278 250.838512 
z
" style="opacity:0.5;"/>
   </g>
   <g id="patch_66">
    <path clip-path="url(#p55ddc564ac)" d="M 445.581818 266.792727 
L 449.759358 266.792727 
L 449.759358 241.265983 
L 445.581818 241.265983 
z
" style="opacity:0.5;"/>
   </g>
   <g id="patch_67">
    <path clip-path="url(#p55ddc564ac)" d="M 449.759358 266.792727 
L 453.936898 266.792727 
L 453.936898 250.838512 
L 449.759358 250.838512 
z
" style="opacity:0.5;"/>
   </g>
   <g id="patch_68">
    <path clip-path="url(#p55ddc564ac)" d="M 453.936898 266.792727 
L 458.114439 266.792727 
L 458.114439 238.07514 
L 453.936898 238.07514 
z
" style="opacity:0.5;"/>
   </g>
   <g id="patch_69">
    <path clip-path="url(#p55ddc564ac)" d="M 458.114439 266.792727 
L 462.291979 266.792727 
L 462.291979 238.07514 
L 458.114439 238.07514 
z
" style="opacity:0.5;"/>
   </g>
   <g id="patch_70">
    <path clip-path="url(#p55ddc564ac)" d="M 462.291979 266.792727 
L 466.469519 266.792727 
L 466.469519 234.884297 
L 462.291979 234.884297 
z
" style="opacity:0.5;"/>
   </g>
   <g id="patch_71">
    <path clip-path="url(#p55ddc564ac)" d="M 466.469519 266.792727 
L 470.647059 266.792727 
L 470.647059 222.120924 
L 466.469519 222.120924 
z
" style="opacity:0.5;"/>
   </g>
   <g id="patch_72">
    <path clip-path="url(#p55ddc564ac)" d="M 470.647059 266.792727 
L 474.824599 266.792727 
L 474.824599 212.548395 
L 470.647059 212.548395 
z
" style="opacity:0.5;"/>
   </g>
   <g id="patch_73">
    <path clip-path="url(#p55ddc564ac)" d="M 474.824599 266.792727 
L 479.002139 266.792727 
L 479.002139 212.548395 
L 474.824599 212.548395 
z
" style="opacity:0.5;"/>
   </g>
   <g id="patch_74">
    <path clip-path="url(#p55ddc564ac)" d="M 479.002139 266.792727 
L 483.179679 266.792727 
L 483.179679 199.785023 
L 479.002139 199.785023 
z
" style="opacity:0.5;"/>
   </g>
   <g id="patch_75">
    <path clip-path="url(#p55ddc564ac)" d="M 483.179679 266.792727 
L 487.357219 266.792727 
L 487.357219 183.830808 
L 483.179679 183.830808 
z
" style="opacity:0.5;"/>
   </g>
   <g id="patch_76">
    <path clip-path="url(#p55ddc564ac)" d="M 487.357219 266.792727 
L 491.534759 266.792727 
L 491.534759 164.68575 
L 487.357219 164.68575 
z
" style="opacity:0.5;"/>
   </g>
   <g id="patch_77">
    <path clip-path="url(#p55ddc564ac)" d="M 491.534759 266.792727 
L 495.712299 266.792727 
L 495.712299 151.922377 
L 491.534759 151.922377 
z
" style="opacity:0.5;"/>
   </g>
   <g id="patch_78">
    <path clip-path="url(#p55ddc564ac)" d="M 495.712299 266.792727 
L 499.88984 266.792727 
L 499.88984 129.586476 
L 495.712299 129.586476 
z
" style="opacity:0.5;"/>
   </g>
   <g id="patch_79">
    <path clip-path="url(#p55ddc564ac)" d="M 499.88984 266.792727 
L 504.06738 266.792727 
L 504.06738 167.876593 
L 499.88984 167.876593 
z
" style="opacity:0.5;"/>
   </g>
   <g id="patch_80">
    <path clip-path="url(#p55ddc564ac)" d="M 504.06738 266.792727 
L 508.24492 266.792727 
L 508.24492 123.20479 
L 504.06738 123.20479 
z
" style="opacity:0.5;"/>
   </g>
   <g id="patch_81">
    <path clip-path="url(#p55ddc564ac)" d="M 508.24492 266.792727 
L 512.42246 266.792727 
L 512.42246 120.013947 
L 508.24492 120.013947 
z
" style="opacity:0.5;"/>
   </g>
   <g id="patch_82">
    <path clip-path="url(#p55ddc564ac)" d="M 512.42246 266.792727 
L 516.6 266.792727 
L 516.6 78.532987 
L 512.42246 78.532987 
z
" style="opacity:0.5;"/>
   </g>
   <g id="patch_83">
    <path clip-path="url(#p55ddc564ac)" d="M 516.6 266.792727 
L 520.77754 266.792727 
L 520.77754 94.487202 
L 516.6 94.487202 
z
" style="opacity:0.5;"/>
   </g>
   <g id="patch_84">
    <path clip-path="url(#p55ddc564ac)" d="M 520.77754 266.792727 
L 524.95508 266.792727 
L 524.95508 94.487202 
L 520.77754 94.487202 
z
" style="opacity:0.5;"/>
   </g>
   <g id="patch_85">
    <path clip-path="url(#p55ddc564ac)" d="M 524.95508 266.792727 
L 529.13262 266.792727 
L 529.13262 107.250575 
L 524.95508 107.250575 
z
" style="opacity:0.5;"/>
   </g>
   <g id="patch_86">
    <path clip-path="url(#p55ddc564ac)" d="M 529.13262 266.792727 
L 533.31016 266.792727 
L 533.31016 145.540691 
L 529.13262 145.540691 
z
" style="opacity:0.5;"/>
   </g>
   <g id="patch_87">
    <path clip-path="url(#p55ddc564ac)" d="M 533.31016 266.792727 
L 537.487701 266.792727 
L 537.487701 142.349848 
L 533.31016 142.349848 
z
" style="opacity:0.5;"/>
   </g>
   <g id="patch_88">
    <path clip-path="url(#p55ddc564ac)" d="M 537.487701 266.792727 
L 541.665241 266.792727 
L 541.665241 139.159005 
L 537.487701 139.159005 
z
" style="opacity:0.5;"/>
   </g>
   <g id="patch_89">
    <path clip-path="url(#p55ddc564ac)" d="M 541.665241 266.792727 
L 545.842781 266.792727 
L 545.842781 104.059731 
L 541.665241 104.059731 
z
" style="opacity:0.5;"/>
   </g>
   <g id="patch_90">
    <path clip-path="url(#p55ddc564ac)" d="M 545.842781 266.792727 
L 550.020321 266.792727 
L 550.020321 164.68575 
L 545.842781 164.68575 
z
" style="opacity:0.5;"/>
   </g>
   <g id="patch_91">
    <path clip-path="url(#p55ddc564ac)" d="M 550.020321 266.792727 
L 554.197861 266.792727 
L 554.197861 135.968162 
L 550.020321 135.968162 
z
" style="opacity:0.5;"/>
   </g>
   <g id="patch_92">
    <path clip-path="url(#p55ddc564ac)" d="M 554.197861 266.792727 
L 558.375401 266.792727 
L 558.375401 164.68575 
L 554.197861 164.68575 
z
" style="opacity:0.5;"/>
   </g>
   <g id="patch_93">
    <path clip-path="url(#p55ddc564ac)" d="M 558.375401 266.792727 
L 562.552941 266.792727 
L 562.552941 209.357552 
L 558.375401 209.357552 
z
" style="opacity:0.5;"/>
   </g>
   <g id="patch_94">
    <path clip-path="url(#p55ddc564ac)" d="M 562.552941 266.792727 
L 566.730481 266.792727 
L 566.730481 209.357552 
L 562.552941 209.357552 
z
" style="opacity:0.5;"/>
   </g>
   <g id="patch_95">
    <path clip-path="url(#p55ddc564ac)" d="M 566.730481 266.792727 
L 570.908021 266.792727 
L 570.908021 190.212494 
L 566.730481 190.212494 
z
" style="opacity:0.5;"/>
   </g>
   <g id="patch_96">
    <path clip-path="url(#p55ddc564ac)" d="M 570.908021 266.792727 
L 575.085561 266.792727 
L 575.085561 212.548395 
L 570.908021 212.548395 
z
" style="opacity:0.5;"/>
   </g>
   <g id="patch_97">
    <path clip-path="url(#p55ddc564ac)" d="M 575.085561 266.792727 
L 579.263102 266.792727 
L 579.263102 215.739238 
L 575.085561 215.739238 
z
" style="opacity:0.5;"/>
   </g>
   <g id="patch_98">
    <path clip-path="url(#p55ddc564ac)" d="M 579.263102 266.792727 
L 583.440642 266.792727 
L 583.440642 238.07514 
L 579.263102 238.07514 
z
" style="opacity:0.5;"/>
   </g>
   <g id="patch_99">
    <path clip-path="url(#p55ddc564ac)" d="M 583.440642 266.792727 
L 587.618182 266.792727 
L 587.618182 241.265983 
L 583.440642 241.265983 
z
" style="opacity:0.5;"/>
   </g>
   <g id="patch_100">
    <path clip-path="url(#p55ddc564ac)" d="M 587.618182 266.792727 
L 591.795722 266.792727 
L 591.795722 260.411041 
L 587.618182 260.411041 
z
" style="opacity:0.5;"/>
   </g>
   <g id="patch_101">
    <path clip-path="url(#p55ddc564ac)" d="M 591.795722 266.792727 
L 595.973262 266.792727 
L 595.973262 254.029355 
L 591.795722 254.029355 
z
" style="opacity:0.5;"/>
   </g>
   <g id="patch_102">
    <path clip-path="url(#p55ddc564ac)" d="M 595.973262 266.792727 
L 600.150802 266.792727 
L 600.150802 257.220198 
L 595.973262 257.220198 
z
" style="opacity:0.5;"/>
   </g>
   <g id="patch_103">
    <path clip-path="url(#p55ddc564ac)" d="M 600.150802 266.792727 
L 604.328342 266.792727 
L 604.328342 257.220198 
L 600.150802 257.220198 
z
" style="opacity:0.5;"/>
   </g>
   <g id="patch_104">
    <path clip-path="url(#p55ddc564ac)" d="M 604.328342 266.792727 
L 608.505882 266.792727 
L 608.505882 254.029355 
L 604.328342 254.029355 
z
" style="opacity:0.5;"/>
   </g>
   <g id="patch_105">
    <path clip-path="url(#p55ddc564ac)" d="M 608.505882 266.792727 
L 612.683422 266.792727 
L 612.683422 266.792727 
L 608.505882 266.792727 
z
" style="opacity:0.5;"/>
   </g>
   <g id="patch_106">
    <path clip-path="url(#p55ddc564ac)" d="M 612.683422 266.792727 
L 616.860963 266.792727 
L 616.860963 266.792727 
L 612.683422 266.792727 
z
" style="opacity:0.5;"/>
   </g>
   <g id="patch_107">
    <path clip-path="url(#p55ddc564ac)" d="M 616.860963 266.792727 
L 621.038503 266.792727 
L 621.038503 260.411041 
L 616.860963 260.411041 
z
" style="opacity:0.5;"/>
   </g>
   <g id="matplotlib.axis_3">
    <g id="xtick_4">
     <g id="line2d_11">
      <g>
       <use style="stroke:#000000;stroke-width:0.8;" x="457.209905" xlink:href="#m72592c08ba" y="266.792727"/>
      </g>
     </g>
     <g id="text_11">
      <!-- −2 -->
      <g transform="translate(449.838811 281.391165)scale(0.1 -0.1)">
       <use xlink:href="#DejaVuSans-8722"/>
       <use x="83.789062" xlink:href="#DejaVuSans-50"/>
      </g>
     </g>
    </g>
    <g id="xtick_5">
     <g id="line2d_12">
      <g>
       <use style="stroke:#000000;stroke-width:0.8;" x="521.813938" xlink:href="#m72592c08ba" y="266.792727"/>
      </g>
     </g>
     <g id="text_12">
      <!-- 0 -->
      <g transform="translate(518.632688 281.391165)scale(0.1 -0.1)">
       <use xlink:href="#DejaVuSans-48"/>
      </g>
     </g>
    </g>
    <g id="xtick_6">
     <g id="line2d_13">
      <g>
       <use style="stroke:#000000;stroke-width:0.8;" x="586.417972" xlink:href="#m72592c08ba" y="266.792727"/>
      </g>
     </g>
     <g id="text_13">
      <!-- 2 -->
      <g transform="translate(583.236722 281.391165)scale(0.1 -0.1)">
       <use xlink:href="#DejaVuSans-50"/>
      </g>
     </g>
    </g>
   </g>
   <g id="matplotlib.axis_4">
    <g id="ytick_8">
     <g id="line2d_14">
      <g>
       <use style="stroke:#000000;stroke-width:0.8;" x="401.717647" xlink:href="#mebeff8e32b" y="266.792727"/>
      </g>
     </g>
     <g id="text_14">
      <!-- 0 -->
      <g transform="translate(388.355147 270.591946)scale(0.1 -0.1)">
       <use xlink:href="#DejaVuSans-48"/>
      </g>
     </g>
    </g>
    <g id="ytick_9">
     <g id="line2d_15">
      <g>
       <use style="stroke:#000000;stroke-width:0.8;" x="401.717647" xlink:href="#mebeff8e32b" y="234.884297"/>
      </g>
     </g>
     <g id="text_15">
      <!-- 10 -->
      <g transform="translate(381.992647 238.683515)scale(0.1 -0.1)">
       <use xlink:href="#DejaVuSans-49"/>
       <use x="63.623047" xlink:href="#DejaVuSans-48"/>
      </g>
     </g>
    </g>
    <g id="ytick_10">
     <g id="line2d_16">
      <g>
       <use style="stroke:#000000;stroke-width:0.8;" x="401.717647" xlink:href="#mebeff8e32b" y="202.975866"/>
      </g>
     </g>
     <g id="text_16">
      <!-- 20 -->
      <g transform="translate(381.992647 206.775085)scale(0.1 -0.1)">
       <use xlink:href="#DejaVuSans-50"/>
       <use x="63.623047" xlink:href="#DejaVuSans-48"/>
      </g>
     </g>
    </g>
    <g id="ytick_11">
     <g id="line2d_17">
      <g>
       <use style="stroke:#000000;stroke-width:0.8;" x="401.717647" xlink:href="#mebeff8e32b" y="171.067436"/>
      </g>
     </g>
     <g id="text_17">
      <!-- 30 -->
      <g transform="translate(381.992647 174.866654)scale(0.1 -0.1)">
       <use xlink:href="#DejaVuSans-51"/>
       <use x="63.623047" xlink:href="#DejaVuSans-48"/>
      </g>
     </g>
    </g>
    <g id="ytick_12">
     <g id="line2d_18">
      <g>
       <use style="stroke:#000000;stroke-width:0.8;" x="401.717647" xlink:href="#mebeff8e32b" y="139.159005"/>
      </g>
     </g>
     <g id="text_18">
      <!-- 40 -->
      <g transform="translate(381.992647 142.958224)scale(0.1 -0.1)">
       <use xlink:href="#DejaVuSans-52"/>
       <use x="63.623047" xlink:href="#DejaVuSans-48"/>
      </g>
     </g>
    </g>
    <g id="ytick_13">
     <g id="line2d_19">
      <g>
       <use style="stroke:#000000;stroke-width:0.8;" x="401.717647" xlink:href="#mebeff8e32b" y="107.250575"/>
      </g>
     </g>
     <g id="text_19">
      <!-- 50 -->
      <g transform="translate(381.992647 111.049793)scale(0.1 -0.1)">
       <use xlink:href="#DejaVuSans-53"/>
       <use x="63.623047" xlink:href="#DejaVuSans-48"/>
      </g>
     </g>
    </g>
    <g id="ytick_14">
     <g id="line2d_20">
      <g>
       <use style="stroke:#000000;stroke-width:0.8;" x="401.717647" xlink:href="#mebeff8e32b" y="75.342144"/>
      </g>
     </g>
     <g id="text_20">
      <!-- 60 -->
      <g transform="translate(381.992647 79.141363)scale(0.1 -0.1)">
       <use xlink:href="#DejaVuSans-54"/>
       <use x="63.623047" xlink:href="#DejaVuSans-48"/>
      </g>
     </g>
    </g>
   </g>
   <g id="patch_108">
    <path d="M 401.717647 266.792727 
L 401.717647 69.12 
" style="fill:none;stroke:#000000;stroke-linecap:square;stroke-linejoin:miter;stroke-width:0.8;"/>
   </g>
   <g id="patch_109">
    <path d="M 631.482353 266.792727 
L 631.482353 69.12 
" style="fill:none;stroke:#000000;stroke-linecap:square;stroke-linejoin:miter;stroke-width:0.8;"/>
   </g>
   <g id="patch_110">
    <path d="M 401.717647 266.792727 
L 631.482353 266.792727 
" style="fill:none;stroke:#000000;stroke-linecap:square;stroke-linejoin:miter;stroke-width:0.8;"/>
   </g>
   <g id="patch_111">
    <path d="M 401.717647 69.12 
L 631.482353 69.12 
" style="fill:none;stroke:#000000;stroke-linecap:square;stroke-linejoin:miter;stroke-width:0.8;"/>
   </g>
  </g>
  <g id="axes_3">
   <g id="patch_112">
    <path d="M 677.435294 266.792727 
L 907.2 266.792727 
L 907.2 69.12 
L 677.435294 69.12 
z
" style="fill:#ffffff;"/>
   </g>
   <g id="patch_113">
    <path clip-path="url(#pb76412b441)" d="M 687.879144 266.792727 
L 692.056684 266.792727 
L 692.056684 256.524014 
L 687.879144 256.524014 
z
" style="opacity:0.5;"/>
   </g>
   <g id="patch_114">
    <path clip-path="url(#pb76412b441)" d="M 692.056684 266.792727 
L 696.234225 266.792727 
L 696.234225 263.369823 
L 692.056684 263.369823 
z
" style="opacity:0.5;"/>
   </g>
   <g id="patch_115">
    <path clip-path="url(#pb76412b441)" d="M 696.234225 266.792727 
L 700.411765 266.792727 
L 700.411765 253.10111 
L 696.234225 253.10111 
z
" style="opacity:0.5;"/>
   </g>
   <g id="patch_116">
    <path clip-path="url(#pb76412b441)" d="M 700.411765 266.792727 
L 704.589305 266.792727 
L 704.589305 253.10111 
L 700.411765 253.10111 
z
" style="opacity:0.5;"/>
   </g>
   <g id="patch_117">
    <path clip-path="url(#pb76412b441)" d="M 704.589305 266.792727 
L 708.766845 266.792727 
L 708.766845 239.409492 
L 704.589305 239.409492 
z
" style="opacity:0.5;"/>
   </g>
   <g id="patch_118">
    <path clip-path="url(#pb76412b441)" d="M 708.766845 266.792727 
L 712.944385 266.792727 
L 712.944385 242.832397 
L 708.766845 242.832397 
z
" style="opacity:0.5;"/>
   </g>
   <g id="patch_119">
    <path clip-path="url(#pb76412b441)" d="M 712.944385 266.792727 
L 717.121925 266.792727 
L 717.121925 249.678205 
L 712.944385 249.678205 
z
" style="opacity:0.5;"/>
   </g>
   <g id="patch_120">
    <path clip-path="url(#pb76412b441)" d="M 717.121925 266.792727 
L 721.299465 266.792727 
L 721.299465 235.986588 
L 717.121925 235.986588 
z
" style="opacity:0.5;"/>
   </g>
   <g id="patch_121">
    <path clip-path="url(#pb76412b441)" d="M 721.299465 266.792727 
L 725.477005 266.792727 
L 725.477005 232.563684 
L 721.299465 232.563684 
z
" style="opacity:0.5;"/>
   </g>
   <g id="patch_122">
    <path clip-path="url(#pb76412b441)" d="M 725.477005 266.792727 
L 729.654545 266.792727 
L 729.654545 218.872066 
L 725.477005 218.872066 
z
" style="opacity:0.5;"/>
   </g>
   <g id="patch_123">
    <path clip-path="url(#pb76412b441)" d="M 729.654545 266.792727 
L 733.832086 266.792727 
L 733.832086 232.563684 
L 729.654545 232.563684 
z
" style="opacity:0.5;"/>
   </g>
   <g id="patch_124">
    <path clip-path="url(#pb76412b441)" d="M 733.832086 266.792727 
L 738.009626 266.792727 
L 738.009626 208.603353 
L 733.832086 208.603353 
z
" style="opacity:0.5;"/>
   </g>
   <g id="patch_125">
    <path clip-path="url(#pb76412b441)" d="M 738.009626 266.792727 
L 742.187166 266.792727 
L 742.187166 205.180449 
L 738.009626 205.180449 
z
" style="opacity:0.5;"/>
   </g>
   <g id="patch_126">
    <path clip-path="url(#pb76412b441)" d="M 742.187166 266.792727 
L 746.364706 266.792727 
L 746.364706 129.876553 
L 742.187166 129.876553 
z
" style="opacity:0.5;"/>
   </g>
   <g id="patch_127">
    <path clip-path="url(#pb76412b441)" d="M 746.364706 266.792727 
L 750.542246 266.792727 
L 750.542246 167.528501 
L 746.364706 167.528501 
z
" style="opacity:0.5;"/>
   </g>
   <g id="patch_128">
    <path clip-path="url(#pb76412b441)" d="M 750.542246 266.792727 
L 754.719786 266.792727 
L 754.719786 157.259787 
L 750.542246 157.259787 
z
" style="opacity:0.5;"/>
   </g>
   <g id="patch_129">
    <path clip-path="url(#pb76412b441)" d="M 754.719786 266.792727 
L 758.897326 266.792727 
L 758.897326 160.682692 
L 754.719786 160.682692 
z
" style="opacity:0.5;"/>
   </g>
   <g id="patch_130">
    <path clip-path="url(#pb76412b441)" d="M 758.897326 266.792727 
L 763.074866 266.792727 
L 763.074866 126.453648 
L 758.897326 126.453648 
z
" style="opacity:0.5;"/>
   </g>
   <g id="patch_131">
    <path clip-path="url(#pb76412b441)" d="M 763.074866 266.792727 
L 767.252406 266.792727 
L 767.252406 129.876553 
L 763.074866 129.876553 
z
" style="opacity:0.5;"/>
   </g>
   <g id="patch_132">
    <path clip-path="url(#pb76412b441)" d="M 767.252406 266.792727 
L 771.429947 266.792727 
L 771.429947 95.647509 
L 767.252406 95.647509 
z
" style="opacity:0.5;"/>
   </g>
   <g id="patch_133">
    <path clip-path="url(#pb76412b441)" d="M 771.429947 266.792727 
L 775.607487 266.792727 
L 775.607487 112.762031 
L 771.429947 112.762031 
z
" style="opacity:0.5;"/>
   </g>
   <g id="patch_134">
    <path clip-path="url(#pb76412b441)" d="M 775.607487 266.792727 
L 779.785027 266.792727 
L 779.785027 109.339126 
L 775.607487 109.339126 
z
" style="opacity:0.5;"/>
   </g>
   <g id="patch_135">
    <path clip-path="url(#pb76412b441)" d="M 779.785027 266.792727 
L 783.962567 266.792727 
L 783.962567 78.532987 
L 779.785027 78.532987 
z
" style="opacity:0.5;"/>
   </g>
   <g id="patch_136">
    <path clip-path="url(#pb76412b441)" d="M 783.962567 266.792727 
L 788.140107 266.792727 
L 788.140107 143.56817 
L 783.962567 143.56817 
z
" style="opacity:0.5;"/>
   </g>
   <g id="patch_137">
    <path clip-path="url(#pb76412b441)" d="M 788.140107 266.792727 
L 792.317647 266.792727 
L 792.317647 102.493318 
L 788.140107 102.493318 
z
" style="opacity:0.5;"/>
   </g>
   <g id="patch_138">
    <path clip-path="url(#pb76412b441)" d="M 792.317647 266.792727 
L 796.495187 266.792727 
L 796.495187 170.951405 
L 792.317647 170.951405 
z
" style="opacity:0.5;"/>
   </g>
   <g id="patch_139">
    <path clip-path="url(#pb76412b441)" d="M 796.495187 266.792727 
L 800.672727 266.792727 
L 800.672727 105.916222 
L 796.495187 105.916222 
z
" style="opacity:0.5;"/>
   </g>
   <g id="patch_140">
    <path clip-path="url(#pb76412b441)" d="M 800.672727 266.792727 
L 804.850267 266.792727 
L 804.850267 99.070413 
L 800.672727 99.070413 
z
" style="opacity:0.5;"/>
   </g>
   <g id="patch_141">
    <path clip-path="url(#pb76412b441)" d="M 804.850267 266.792727 
L 809.027807 266.792727 
L 809.027807 153.836883 
L 804.850267 153.836883 
z
" style="opacity:0.5;"/>
   </g>
   <g id="patch_142">
    <path clip-path="url(#pb76412b441)" d="M 809.027807 266.792727 
L 813.205348 266.792727 
L 813.205348 126.453648 
L 809.027807 126.453648 
z
" style="opacity:0.5;"/>
   </g>
   <g id="patch_143">
    <path clip-path="url(#pb76412b441)" d="M 813.205348 266.792727 
L 817.382888 266.792727 
L 817.382888 136.722361 
L 813.205348 136.722361 
z
" style="opacity:0.5;"/>
   </g>
   <g id="patch_144">
    <path clip-path="url(#pb76412b441)" d="M 817.382888 266.792727 
L 821.560428 266.792727 
L 821.560428 191.488831 
L 817.382888 191.488831 
z
" style="opacity:0.5;"/>
   </g>
   <g id="patch_145">
    <path clip-path="url(#pb76412b441)" d="M 821.560428 266.792727 
L 825.737968 266.792727 
L 825.737968 153.836883 
L 821.560428 153.836883 
z
" style="opacity:0.5;"/>
   </g>
   <g id="patch_146">
    <path clip-path="url(#pb76412b441)" d="M 825.737968 266.792727 
L 829.915508 266.792727 
L 829.915508 205.180449 
L 825.737968 205.180449 
z
" style="opacity:0.5;"/>
   </g>
   <g id="patch_147">
    <path clip-path="url(#pb76412b441)" d="M 829.915508 266.792727 
L 834.093048 266.792727 
L 834.093048 188.065927 
L 829.915508 188.065927 
z
" style="opacity:0.5;"/>
   </g>
   <g id="patch_148">
    <path clip-path="url(#pb76412b441)" d="M 834.093048 266.792727 
L 838.270588 266.792727 
L 838.270588 218.872066 
L 834.093048 218.872066 
z
" style="opacity:0.5;"/>
   </g>
   <g id="patch_149">
    <path clip-path="url(#pb76412b441)" d="M 838.270588 266.792727 
L 842.448128 266.792727 
L 842.448128 239.409492 
L 838.270588 239.409492 
z
" style="opacity:0.5;"/>
   </g>
   <g id="patch_150">
    <path clip-path="url(#pb76412b441)" d="M 842.448128 266.792727 
L 846.625668 266.792727 
L 846.625668 215.449162 
L 842.448128 215.449162 
z
" style="opacity:0.5;"/>
   </g>
   <g id="patch_151">
    <path clip-path="url(#pb76412b441)" d="M 846.625668 266.792727 
L 850.803209 266.792727 
L 850.803209 242.832397 
L 846.625668 242.832397 
z
" style="opacity:0.5;"/>
   </g>
   <g id="patch_152">
    <path clip-path="url(#pb76412b441)" d="M 850.803209 266.792727 
L 854.980749 266.792727 
L 854.980749 249.678205 
L 850.803209 249.678205 
z
" style="opacity:0.5;"/>
   </g>
   <g id="patch_153">
    <path clip-path="url(#pb76412b441)" d="M 854.980749 266.792727 
L 859.158289 266.792727 
L 859.158289 263.369823 
L 854.980749 263.369823 
z
" style="opacity:0.5;"/>
   </g>
   <g id="patch_154">
    <path clip-path="url(#pb76412b441)" d="M 859.158289 266.792727 
L 863.335829 266.792727 
L 863.335829 259.946919 
L 859.158289 259.946919 
z
" style="opacity:0.5;"/>
   </g>
   <g id="patch_155">
    <path clip-path="url(#pb76412b441)" d="M 863.335829 266.792727 
L 867.513369 266.792727 
L 867.513369 256.524014 
L 863.335829 256.524014 
z
" style="opacity:0.5;"/>
   </g>
   <g id="patch_156">
    <path clip-path="url(#pb76412b441)" d="M 867.513369 266.792727 
L 871.690909 266.792727 
L 871.690909 253.10111 
L 867.513369 253.10111 
z
" style="opacity:0.5;"/>
   </g>
   <g id="patch_157">
    <path clip-path="url(#pb76412b441)" d="M 871.690909 266.792727 
L 875.868449 266.792727 
L 875.868449 263.369823 
L 871.690909 263.369823 
z
" style="opacity:0.5;"/>
   </g>
   <g id="patch_158">
    <path clip-path="url(#pb76412b441)" d="M 875.868449 266.792727 
L 880.045989 266.792727 
L 880.045989 263.369823 
L 875.868449 263.369823 
z
" style="opacity:0.5;"/>
   </g>
   <g id="patch_159">
    <path clip-path="url(#pb76412b441)" d="M 880.045989 266.792727 
L 884.223529 266.792727 
L 884.223529 263.369823 
L 880.045989 263.369823 
z
" style="opacity:0.5;"/>
   </g>
   <g id="patch_160">
    <path clip-path="url(#pb76412b441)" d="M 884.223529 266.792727 
L 888.40107 266.792727 
L 888.40107 263.369823 
L 884.223529 263.369823 
z
" style="opacity:0.5;"/>
   </g>
   <g id="patch_161">
    <path clip-path="url(#pb76412b441)" d="M 888.40107 266.792727 
L 892.57861 266.792727 
L 892.57861 266.792727 
L 888.40107 266.792727 
z
" style="opacity:0.5;"/>
   </g>
   <g id="patch_162">
    <path clip-path="url(#pb76412b441)" d="M 892.57861 266.792727 
L 896.75615 266.792727 
L 896.75615 259.946919 
L 892.57861 259.946919 
z
" style="opacity:0.5;"/>
   </g>
   <g id="matplotlib.axis_5">
    <g id="xtick_7">
     <g id="line2d_21">
      <g>
       <use style="stroke:#000000;stroke-width:0.8;" x="680.778272" xlink:href="#m72592c08ba" y="266.792727"/>
      </g>
     </g>
     <g id="text_21">
      <!-- −3 -->
      <g transform="translate(673.407178 281.391165)scale(0.1 -0.1)">
       <use xlink:href="#DejaVuSans-8722"/>
       <use x="83.789062" xlink:href="#DejaVuSans-51"/>
      </g>
     </g>
    </g>
    <g id="xtick_8">
     <g id="line2d_22">
      <g>
       <use style="stroke:#000000;stroke-width:0.8;" x="715.117018" xlink:href="#m72592c08ba" y="266.792727"/>
      </g>
     </g>
     <g id="text_22">
      <!-- −2 -->
      <g transform="translate(707.745925 281.391165)scale(0.1 -0.1)">
       <use xlink:href="#DejaVuSans-8722"/>
       <use x="83.789062" xlink:href="#DejaVuSans-50"/>
      </g>
     </g>
    </g>
    <g id="xtick_9">
     <g id="line2d_23">
      <g>
       <use style="stroke:#000000;stroke-width:0.8;" x="749.455765" xlink:href="#m72592c08ba" y="266.792727"/>
      </g>
     </g>
     <g id="text_23">
      <!-- −1 -->
      <g transform="translate(742.084671 281.391165)scale(0.1 -0.1)">
       <use xlink:href="#DejaVuSans-8722"/>
       <use x="83.789062" xlink:href="#DejaVuSans-49"/>
      </g>
     </g>
    </g>
    <g id="xtick_10">
     <g id="line2d_24">
      <g>
       <use style="stroke:#000000;stroke-width:0.8;" x="783.794511" xlink:href="#m72592c08ba" y="266.792727"/>
      </g>
     </g>
     <g id="text_24">
      <!-- 0 -->
      <g transform="translate(780.613261 281.391165)scale(0.1 -0.1)">
       <use xlink:href="#DejaVuSans-48"/>
      </g>
     </g>
    </g>
    <g id="xtick_11">
     <g id="line2d_25">
      <g>
       <use style="stroke:#000000;stroke-width:0.8;" x="818.133258" xlink:href="#m72592c08ba" y="266.792727"/>
      </g>
     </g>
     <g id="text_25">
      <!-- 1 -->
      <g transform="translate(814.952008 281.391165)scale(0.1 -0.1)">
       <use xlink:href="#DejaVuSans-49"/>
      </g>
     </g>
    </g>
    <g id="xtick_12">
     <g id="line2d_26">
      <g>
       <use style="stroke:#000000;stroke-width:0.8;" x="852.472005" xlink:href="#m72592c08ba" y="266.792727"/>
      </g>
     </g>
     <g id="text_26">
      <!-- 2 -->
      <g transform="translate(849.290755 281.391165)scale(0.1 -0.1)">
       <use xlink:href="#DejaVuSans-50"/>
      </g>
     </g>
    </g>
    <g id="xtick_13">
     <g id="line2d_27">
      <g>
       <use style="stroke:#000000;stroke-width:0.8;" x="886.810751" xlink:href="#m72592c08ba" y="266.792727"/>
      </g>
     </g>
     <g id="text_27">
      <!-- 3 -->
      <g transform="translate(883.629501 281.391165)scale(0.1 -0.1)">
       <use xlink:href="#DejaVuSans-51"/>
      </g>
     </g>
    </g>
   </g>
   <g id="matplotlib.axis_6">
    <g id="ytick_15">
     <g id="line2d_28">
      <g>
       <use style="stroke:#000000;stroke-width:0.8;" x="677.435294" xlink:href="#mebeff8e32b" y="266.792727"/>
      </g>
     </g>
     <g id="text_28">
      <!-- 0 -->
      <g transform="translate(664.072794 270.591946)scale(0.1 -0.1)">
       <use xlink:href="#DejaVuSans-48"/>
      </g>
     </g>
    </g>
    <g id="ytick_16">
     <g id="line2d_29">
      <g>
       <use style="stroke:#000000;stroke-width:0.8;" x="677.435294" xlink:href="#mebeff8e32b" y="232.563684"/>
      </g>
     </g>
     <g id="text_29">
      <!-- 10 -->
      <g transform="translate(657.710294 236.362902)scale(0.1 -0.1)">
       <use xlink:href="#DejaVuSans-49"/>
       <use x="63.623047" xlink:href="#DejaVuSans-48"/>
      </g>
     </g>
    </g>
    <g id="ytick_17">
     <g id="line2d_30">
      <g>
       <use style="stroke:#000000;stroke-width:0.8;" x="677.435294" xlink:href="#mebeff8e32b" y="198.33464"/>
      </g>
     </g>
     <g id="text_30">
      <!-- 20 -->
      <g transform="translate(657.710294 202.133859)scale(0.1 -0.1)">
       <use xlink:href="#DejaVuSans-50"/>
       <use x="63.623047" xlink:href="#DejaVuSans-48"/>
      </g>
     </g>
    </g>
    <g id="ytick_18">
     <g id="line2d_31">
      <g>
       <use style="stroke:#000000;stroke-width:0.8;" x="677.435294" xlink:href="#mebeff8e32b" y="164.105596"/>
      </g>
     </g>
     <g id="text_31">
      <!-- 30 -->
      <g transform="translate(657.710294 167.904815)scale(0.1 -0.1)">
       <use xlink:href="#DejaVuSans-51"/>
       <use x="63.623047" xlink:href="#DejaVuSans-48"/>
      </g>
     </g>
    </g>
    <g id="ytick_19">
     <g id="line2d_32">
      <g>
       <use style="stroke:#000000;stroke-width:0.8;" x="677.435294" xlink:href="#mebeff8e32b" y="129.876553"/>
      </g>
     </g>
     <g id="text_32">
      <!-- 40 -->
      <g transform="translate(657.710294 133.675771)scale(0.1 -0.1)">
       <use xlink:href="#DejaVuSans-52"/>
       <use x="63.623047" xlink:href="#DejaVuSans-48"/>
      </g>
     </g>
    </g>
    <g id="ytick_20">
     <g id="line2d_33">
      <g>
       <use style="stroke:#000000;stroke-width:0.8;" x="677.435294" xlink:href="#mebeff8e32b" y="95.647509"/>
      </g>
     </g>
     <g id="text_33">
      <!-- 50 -->
      <g transform="translate(657.710294 99.446728)scale(0.1 -0.1)">
       <use xlink:href="#DejaVuSans-53"/>
       <use x="63.623047" xlink:href="#DejaVuSans-48"/>
      </g>
     </g>
    </g>
   </g>
   <g id="patch_163">
    <path d="M 677.435294 266.792727 
L 677.435294 69.12 
" style="fill:none;stroke:#000000;stroke-linecap:square;stroke-linejoin:miter;stroke-width:0.8;"/>
   </g>
   <g id="patch_164">
    <path d="M 907.2 266.792727 
L 907.2 69.12 
" style="fill:none;stroke:#000000;stroke-linecap:square;stroke-linejoin:miter;stroke-width:0.8;"/>
   </g>
   <g id="patch_165">
    <path d="M 677.435294 266.792727 
L 907.2 266.792727 
" style="fill:none;stroke:#000000;stroke-linecap:square;stroke-linejoin:miter;stroke-width:0.8;"/>
   </g>
   <g id="patch_166">
    <path d="M 677.435294 69.12 
L 907.2 69.12 
" style="fill:none;stroke:#000000;stroke-linecap:square;stroke-linejoin:miter;stroke-width:0.8;"/>
   </g>
  </g>
  <g id="axes_4">
   <g id="patch_167">
    <path d="M 126 504 
L 355.764706 504 
L 355.764706 306.327273 
L 126 306.327273 
z
" style="fill:#ffffff;"/>
   </g>
   <g id="patch_168">
    <path clip-path="url(#p9dcaeb9078)" d="M 136.44385 504 
L 140.62139 504 
L 140.62139 500.862338 
L 136.44385 500.862338 
z
" style="opacity:0.5;"/>
   </g>
   <g id="patch_169">
    <path clip-path="url(#p9dcaeb9078)" d="M 140.62139 504 
L 144.79893 504 
L 144.79893 504 
L 140.62139 504 
z
" style="opacity:0.5;"/>
   </g>
   <g id="patch_170">
    <path clip-path="url(#p9dcaeb9078)" d="M 144.79893 504 
L 148.976471 504 
L 148.976471 504 
L 144.79893 504 
z
" style="opacity:0.5;"/>
   </g>
   <g id="patch_171">
    <path clip-path="url(#p9dcaeb9078)" d="M 148.976471 504 
L 153.154011 504 
L 153.154011 497.724675 
L 148.976471 497.724675 
z
" style="opacity:0.5;"/>
   </g>
   <g id="patch_172">
    <path clip-path="url(#p9dcaeb9078)" d="M 153.154011 504 
L 157.331551 504 
L 157.331551 497.724675 
L 153.154011 497.724675 
z
" style="opacity:0.5;"/>
   </g>
   <g id="patch_173">
    <path clip-path="url(#p9dcaeb9078)" d="M 157.331551 504 
L 161.509091 504 
L 161.509091 500.862338 
L 157.331551 500.862338 
z
" style="opacity:0.5;"/>
   </g>
   <g id="patch_174">
    <path clip-path="url(#p9dcaeb9078)" d="M 161.509091 504 
L 165.686631 504 
L 165.686631 497.724675 
L 161.509091 497.724675 
z
" style="opacity:0.5;"/>
   </g>
   <g id="patch_175">
    <path clip-path="url(#p9dcaeb9078)" d="M 165.686631 504 
L 169.864171 504 
L 169.864171 488.311688 
L 165.686631 488.311688 
z
" style="opacity:0.5;"/>
   </g>
   <g id="patch_176">
    <path clip-path="url(#p9dcaeb9078)" d="M 169.864171 504 
L 174.041711 504 
L 174.041711 478.898701 
L 169.864171 478.898701 
z
" style="opacity:0.5;"/>
   </g>
   <g id="patch_177">
    <path clip-path="url(#p9dcaeb9078)" d="M 174.041711 504 
L 178.219251 504 
L 178.219251 491.449351 
L 174.041711 491.449351 
z
" style="opacity:0.5;"/>
   </g>
   <g id="patch_178">
    <path clip-path="url(#p9dcaeb9078)" d="M 178.219251 504 
L 182.396791 504 
L 182.396791 466.348052 
L 178.219251 466.348052 
z
" style="opacity:0.5;"/>
   </g>
   <g id="patch_179">
    <path clip-path="url(#p9dcaeb9078)" d="M 182.396791 504 
L 186.574332 504 
L 186.574332 450.65974 
L 182.396791 450.65974 
z
" style="opacity:0.5;"/>
   </g>
   <g id="patch_180">
    <path clip-path="url(#p9dcaeb9078)" d="M 186.574332 504 
L 190.751872 504 
L 190.751872 453.797403 
L 186.574332 453.797403 
z
" style="opacity:0.5;"/>
   </g>
   <g id="patch_181">
    <path clip-path="url(#p9dcaeb9078)" d="M 190.751872 504 
L 194.929412 504 
L 194.929412 431.833766 
L 190.751872 431.833766 
z
" style="opacity:0.5;"/>
   </g>
   <g id="patch_182">
    <path clip-path="url(#p9dcaeb9078)" d="M 194.929412 504 
L 199.106952 504 
L 199.106952 413.007792 
L 194.929412 413.007792 
z
" style="opacity:0.5;"/>
   </g>
   <g id="patch_183">
    <path clip-path="url(#p9dcaeb9078)" d="M 199.106952 504 
L 203.284492 504 
L 203.284492 444.384416 
L 199.106952 444.384416 
z
" style="opacity:0.5;"/>
   </g>
   <g id="patch_184">
    <path clip-path="url(#p9dcaeb9078)" d="M 203.284492 504 
L 207.462032 504 
L 207.462032 416.145455 
L 203.284492 416.145455 
z
" style="opacity:0.5;"/>
   </g>
   <g id="patch_185">
    <path clip-path="url(#p9dcaeb9078)" d="M 207.462032 504 
L 211.639572 504 
L 211.639572 403.594805 
L 207.462032 403.594805 
z
" style="opacity:0.5;"/>
   </g>
   <g id="patch_186">
    <path clip-path="url(#p9dcaeb9078)" d="M 211.639572 504 
L 215.817112 504 
L 215.817112 359.667532 
L 211.639572 359.667532 
z
" style="opacity:0.5;"/>
   </g>
   <g id="patch_187">
    <path clip-path="url(#p9dcaeb9078)" d="M 215.817112 504 
L 219.994652 504 
L 219.994652 353.392208 
L 215.817112 353.392208 
z
" style="opacity:0.5;"/>
   </g>
   <g id="patch_188">
    <path clip-path="url(#p9dcaeb9078)" d="M 219.994652 504 
L 224.172193 504 
L 224.172193 328.290909 
L 219.994652 328.290909 
z
" style="opacity:0.5;"/>
   </g>
   <g id="patch_189">
    <path clip-path="url(#p9dcaeb9078)" d="M 224.172193 504 
L 228.349733 504 
L 228.349733 334.566234 
L 224.172193 334.566234 
z
" style="opacity:0.5;"/>
   </g>
   <g id="patch_190">
    <path clip-path="url(#p9dcaeb9078)" d="M 228.349733 504 
L 232.527273 504 
L 232.527273 318.877922 
L 228.349733 318.877922 
z
" style="opacity:0.5;"/>
   </g>
   <g id="patch_191">
    <path clip-path="url(#p9dcaeb9078)" d="M 232.527273 504 
L 236.704813 504 
L 236.704813 347.116883 
L 232.527273 347.116883 
z
" style="opacity:0.5;"/>
   </g>
   <g id="patch_192">
    <path clip-path="url(#p9dcaeb9078)" d="M 236.704813 504 
L 240.882353 504 
L 240.882353 315.74026 
L 236.704813 315.74026 
z
" style="opacity:0.5;"/>
   </g>
   <g id="patch_193">
    <path clip-path="url(#p9dcaeb9078)" d="M 240.882353 504 
L 245.059893 504 
L 245.059893 331.428571 
L 240.882353 331.428571 
z
" style="opacity:0.5;"/>
   </g>
   <g id="patch_194">
    <path clip-path="url(#p9dcaeb9078)" d="M 245.059893 504 
L 249.237433 504 
L 249.237433 328.290909 
L 245.059893 328.290909 
z
" style="opacity:0.5;"/>
   </g>
   <g id="patch_195">
    <path clip-path="url(#p9dcaeb9078)" d="M 249.237433 504 
L 253.414973 504 
L 253.414973 397.319481 
L 249.237433 397.319481 
z
" style="opacity:0.5;"/>
   </g>
   <g id="patch_196">
    <path clip-path="url(#p9dcaeb9078)" d="M 253.414973 504 
L 257.592513 504 
L 257.592513 372.218182 
L 253.414973 372.218182 
z
" style="opacity:0.5;"/>
   </g>
   <g id="patch_197">
    <path clip-path="url(#p9dcaeb9078)" d="M 257.592513 504 
L 261.770053 504 
L 261.770053 400.457143 
L 257.592513 400.457143 
z
" style="opacity:0.5;"/>
   </g>
   <g id="patch_198">
    <path clip-path="url(#p9dcaeb9078)" d="M 261.770053 504 
L 265.947594 504 
L 265.947594 397.319481 
L 261.770053 397.319481 
z
" style="opacity:0.5;"/>
   </g>
   <g id="patch_199">
    <path clip-path="url(#p9dcaeb9078)" d="M 265.947594 504 
L 270.125134 504 
L 270.125134 387.906494 
L 265.947594 387.906494 
z
" style="opacity:0.5;"/>
   </g>
   <g id="patch_200">
    <path clip-path="url(#p9dcaeb9078)" d="M 270.125134 504 
L 274.302674 504 
L 274.302674 416.145455 
L 270.125134 416.145455 
z
" style="opacity:0.5;"/>
   </g>
   <g id="patch_201">
    <path clip-path="url(#p9dcaeb9078)" d="M 274.302674 504 
L 278.480214 504 
L 278.480214 431.833766 
L 274.302674 431.833766 
z
" style="opacity:0.5;"/>
   </g>
   <g id="patch_202">
    <path clip-path="url(#p9dcaeb9078)" d="M 278.480214 504 
L 282.657754 504 
L 282.657754 441.246753 
L 278.480214 441.246753 
z
" style="opacity:0.5;"/>
   </g>
   <g id="patch_203">
    <path clip-path="url(#p9dcaeb9078)" d="M 282.657754 504 
L 286.835294 504 
L 286.835294 475.761039 
L 282.657754 475.761039 
z
" style="opacity:0.5;"/>
   </g>
   <g id="patch_204">
    <path clip-path="url(#p9dcaeb9078)" d="M 286.835294 504 
L 291.012834 504 
L 291.012834 447.522078 
L 286.835294 447.522078 
z
" style="opacity:0.5;"/>
   </g>
   <g id="patch_205">
    <path clip-path="url(#p9dcaeb9078)" d="M 291.012834 504 
L 295.190374 504 
L 295.190374 485.174026 
L 291.012834 485.174026 
z
" style="opacity:0.5;"/>
   </g>
   <g id="patch_206">
    <path clip-path="url(#p9dcaeb9078)" d="M 295.190374 504 
L 299.367914 504 
L 299.367914 482.036364 
L 295.190374 482.036364 
z
" style="opacity:0.5;"/>
   </g>
   <g id="patch_207">
    <path clip-path="url(#p9dcaeb9078)" d="M 299.367914 504 
L 303.545455 504 
L 303.545455 475.761039 
L 299.367914 475.761039 
z
" style="opacity:0.5;"/>
   </g>
   <g id="patch_208">
    <path clip-path="url(#p9dcaeb9078)" d="M 303.545455 504 
L 307.722995 504 
L 307.722995 491.449351 
L 303.545455 491.449351 
z
" style="opacity:0.5;"/>
   </g>
   <g id="patch_209">
    <path clip-path="url(#p9dcaeb9078)" d="M 307.722995 504 
L 311.900535 504 
L 311.900535 497.724675 
L 307.722995 497.724675 
z
" style="opacity:0.5;"/>
   </g>
   <g id="patch_210">
    <path clip-path="url(#p9dcaeb9078)" d="M 311.900535 504 
L 316.078075 504 
L 316.078075 491.449351 
L 311.900535 491.449351 
z
" style="opacity:0.5;"/>
   </g>
   <g id="patch_211">
    <path clip-path="url(#p9dcaeb9078)" d="M 316.078075 504 
L 320.255615 504 
L 320.255615 497.724675 
L 316.078075 497.724675 
z
" style="opacity:0.5;"/>
   </g>
   <g id="patch_212">
    <path clip-path="url(#p9dcaeb9078)" d="M 320.255615 504 
L 324.433155 504 
L 324.433155 504 
L 320.255615 504 
z
" style="opacity:0.5;"/>
   </g>
   <g id="patch_213">
    <path clip-path="url(#p9dcaeb9078)" d="M 324.433155 504 
L 328.610695 504 
L 328.610695 504 
L 324.433155 504 
z
" style="opacity:0.5;"/>
   </g>
   <g id="patch_214">
    <path clip-path="url(#p9dcaeb9078)" d="M 328.610695 504 
L 332.788235 504 
L 332.788235 504 
L 328.610695 504 
z
" style="opacity:0.5;"/>
   </g>
   <g id="patch_215">
    <path clip-path="url(#p9dcaeb9078)" d="M 332.788235 504 
L 336.965775 504 
L 336.965775 504 
L 332.788235 504 
z
" style="opacity:0.5;"/>
   </g>
   <g id="patch_216">
    <path clip-path="url(#p9dcaeb9078)" d="M 336.965775 504 
L 341.143316 504 
L 341.143316 500.862338 
L 336.965775 500.862338 
z
" style="opacity:0.5;"/>
   </g>
   <g id="patch_217">
    <path clip-path="url(#p9dcaeb9078)" d="M 341.143316 504 
L 345.320856 504 
L 345.320856 497.724675 
L 341.143316 497.724675 
z
" style="opacity:0.5;"/>
   </g>
   <g id="matplotlib.axis_7">
    <g id="xtick_14">
     <g id="line2d_34">
      <g>
       <use style="stroke:#000000;stroke-width:0.8;" x="174.627821" xlink:href="#m72592c08ba" y="504"/>
      </g>
     </g>
     <g id="text_34">
      <!-- −2 -->
      <g transform="translate(167.256727 518.598437)scale(0.1 -0.1)">
       <use xlink:href="#DejaVuSans-8722"/>
       <use x="83.789062" xlink:href="#DejaVuSans-50"/>
      </g>
     </g>
    </g>
    <g id="xtick_15">
     <g id="line2d_35">
      <g>
       <use style="stroke:#000000;stroke-width:0.8;" x="236.290454" xlink:href="#m72592c08ba" y="504"/>
      </g>
     </g>
     <g id="text_35">
      <!-- 0 -->
      <g transform="translate(233.109204 518.598437)scale(0.1 -0.1)">
       <use xlink:href="#DejaVuSans-48"/>
      </g>
     </g>
    </g>
    <g id="xtick_16">
     <g id="line2d_36">
      <g>
       <use style="stroke:#000000;stroke-width:0.8;" x="297.953086" xlink:href="#m72592c08ba" y="504"/>
      </g>
     </g>
     <g id="text_36">
      <!-- 2 -->
      <g transform="translate(294.771836 518.598437)scale(0.1 -0.1)">
       <use xlink:href="#DejaVuSans-50"/>
      </g>
     </g>
    </g>
   </g>
   <g id="matplotlib.axis_8">
    <g id="ytick_21">
     <g id="line2d_37">
      <g>
       <use style="stroke:#000000;stroke-width:0.8;" x="126" xlink:href="#mebeff8e32b" y="504"/>
      </g>
     </g>
     <g id="text_37">
      <!-- 0 -->
      <g transform="translate(112.6375 507.799219)scale(0.1 -0.1)">
       <use xlink:href="#DejaVuSans-48"/>
      </g>
     </g>
    </g>
    <g id="ytick_22">
     <g id="line2d_38">
      <g>
       <use style="stroke:#000000;stroke-width:0.8;" x="126" xlink:href="#mebeff8e32b" y="472.623377"/>
      </g>
     </g>
     <g id="text_38">
      <!-- 10 -->
      <g transform="translate(106.275 476.422595)scale(0.1 -0.1)">
       <use xlink:href="#DejaVuSans-49"/>
       <use x="63.623047" xlink:href="#DejaVuSans-48"/>
      </g>
     </g>
    </g>
    <g id="ytick_23">
     <g id="line2d_39">
      <g>
       <use style="stroke:#000000;stroke-width:0.8;" x="126" xlink:href="#mebeff8e32b" y="441.246753"/>
      </g>
     </g>
     <g id="text_39">
      <!-- 20 -->
      <g transform="translate(106.275 445.045972)scale(0.1 -0.1)">
       <use xlink:href="#DejaVuSans-50"/>
       <use x="63.623047" xlink:href="#DejaVuSans-48"/>
      </g>
     </g>
    </g>
    <g id="ytick_24">
     <g id="line2d_40">
      <g>
       <use style="stroke:#000000;stroke-width:0.8;" x="126" xlink:href="#mebeff8e32b" y="409.87013"/>
      </g>
     </g>
     <g id="text_40">
      <!-- 30 -->
      <g transform="translate(106.275 413.669349)scale(0.1 -0.1)">
       <use xlink:href="#DejaVuSans-51"/>
       <use x="63.623047" xlink:href="#DejaVuSans-48"/>
      </g>
     </g>
    </g>
    <g id="ytick_25">
     <g id="line2d_41">
      <g>
       <use style="stroke:#000000;stroke-width:0.8;" x="126" xlink:href="#mebeff8e32b" y="378.493506"/>
      </g>
     </g>
     <g id="text_41">
      <!-- 40 -->
      <g transform="translate(106.275 382.292725)scale(0.1 -0.1)">
       <use xlink:href="#DejaVuSans-52"/>
       <use x="63.623047" xlink:href="#DejaVuSans-48"/>
      </g>
     </g>
    </g>
    <g id="ytick_26">
     <g id="line2d_42">
      <g>
       <use style="stroke:#000000;stroke-width:0.8;" x="126" xlink:href="#mebeff8e32b" y="347.116883"/>
      </g>
     </g>
     <g id="text_42">
      <!-- 50 -->
      <g transform="translate(106.275 350.916102)scale(0.1 -0.1)">
       <use xlink:href="#DejaVuSans-53"/>
       <use x="63.623047" xlink:href="#DejaVuSans-48"/>
      </g>
     </g>
    </g>
    <g id="ytick_27">
     <g id="line2d_43">
      <g>
       <use style="stroke:#000000;stroke-width:0.8;" x="126" xlink:href="#mebeff8e32b" y="315.74026"/>
      </g>
     </g>
     <g id="text_43">
      <!-- 60 -->
      <g transform="translate(106.275 319.539478)scale(0.1 -0.1)">
       <use xlink:href="#DejaVuSans-54"/>
       <use x="63.623047" xlink:href="#DejaVuSans-48"/>
      </g>
     </g>
    </g>
   </g>
   <g id="patch_218">
    <path d="M 126 504 
L 126 306.327273 
" style="fill:none;stroke:#000000;stroke-linecap:square;stroke-linejoin:miter;stroke-width:0.8;"/>
   </g>
   <g id="patch_219">
    <path d="M 355.764706 504 
L 355.764706 306.327273 
" style="fill:none;stroke:#000000;stroke-linecap:square;stroke-linejoin:miter;stroke-width:0.8;"/>
   </g>
   <g id="patch_220">
    <path d="M 126 504 
L 355.764706 504 
" style="fill:none;stroke:#000000;stroke-linecap:square;stroke-linejoin:miter;stroke-width:0.8;"/>
   </g>
   <g id="patch_221">
    <path d="M 126 306.327273 
L 355.764706 306.327273 
" style="fill:none;stroke:#000000;stroke-linecap:square;stroke-linejoin:miter;stroke-width:0.8;"/>
   </g>
  </g>
  <g id="axes_5">
   <g id="patch_222">
    <path d="M 401.717647 504 
L 631.482353 504 
L 631.482353 306.327273 
L 401.717647 306.327273 
z
" style="fill:#ffffff;"/>
   </g>
   <g id="patch_223">
    <path clip-path="url(#pbb5a3ab8b7)" d="M 412.161497 504 
L 416.339037 504 
L 416.339037 500.913775 
L 412.161497 500.913775 
z
" style="opacity:0.5;"/>
   </g>
   <g id="patch_224">
    <path clip-path="url(#pbb5a3ab8b7)" d="M 416.339037 504 
L 420.516578 504 
L 420.516578 500.913775 
L 416.339037 500.913775 
z
" style="opacity:0.5;"/>
   </g>
   <g id="patch_225">
    <path clip-path="url(#pbb5a3ab8b7)" d="M 420.516578 504 
L 424.694118 504 
L 424.694118 504 
L 420.516578 504 
z
" style="opacity:0.5;"/>
   </g>
   <g id="patch_226">
    <path clip-path="url(#pbb5a3ab8b7)" d="M 424.694118 504 
L 428.871658 504 
L 428.871658 497.827549 
L 424.694118 497.827549 
z
" style="opacity:0.5;"/>
   </g>
   <g id="patch_227">
    <path clip-path="url(#pbb5a3ab8b7)" d="M 428.871658 504 
L 433.049198 504 
L 433.049198 494.741324 
L 428.871658 494.741324 
z
" style="opacity:0.5;"/>
   </g>
   <g id="patch_228">
    <path clip-path="url(#pbb5a3ab8b7)" d="M 433.049198 504 
L 437.226738 504 
L 437.226738 497.827549 
L 433.049198 497.827549 
z
" style="opacity:0.5;"/>
   </g>
   <g id="patch_229">
    <path clip-path="url(#pbb5a3ab8b7)" d="M 437.226738 504 
L 441.404278 504 
L 441.404278 491.655099 
L 437.226738 491.655099 
z
" style="opacity:0.5;"/>
   </g>
   <g id="patch_230">
    <path clip-path="url(#pbb5a3ab8b7)" d="M 441.404278 504 
L 445.581818 504 
L 445.581818 500.913775 
L 441.404278 500.913775 
z
" style="opacity:0.5;"/>
   </g>
   <g id="patch_231">
    <path clip-path="url(#pbb5a3ab8b7)" d="M 445.581818 504 
L 449.759358 504 
L 449.759358 485.482648 
L 445.581818 485.482648 
z
" style="opacity:0.5;"/>
   </g>
   <g id="patch_232">
    <path clip-path="url(#pbb5a3ab8b7)" d="M 449.759358 504 
L 453.936898 504 
L 453.936898 485.482648 
L 449.759358 485.482648 
z
" style="opacity:0.5;"/>
   </g>
   <g id="patch_233">
    <path clip-path="url(#pbb5a3ab8b7)" d="M 453.936898 504 
L 458.114439 504 
L 458.114439 482.396423 
L 453.936898 482.396423 
z
" style="opacity:0.5;"/>
   </g>
   <g id="patch_234">
    <path clip-path="url(#pbb5a3ab8b7)" d="M 458.114439 504 
L 462.291979 504 
L 462.291979 485.482648 
L 458.114439 485.482648 
z
" style="opacity:0.5;"/>
   </g>
   <g id="patch_235">
    <path clip-path="url(#pbb5a3ab8b7)" d="M 462.291979 504 
L 466.469519 504 
L 466.469519 460.792846 
L 462.291979 460.792846 
z
" style="opacity:0.5;"/>
   </g>
   <g id="patch_236">
    <path clip-path="url(#pbb5a3ab8b7)" d="M 466.469519 504 
L 470.647059 504 
L 470.647059 460.792846 
L 466.469519 460.792846 
z
" style="opacity:0.5;"/>
   </g>
   <g id="patch_237">
    <path clip-path="url(#pbb5a3ab8b7)" d="M 470.647059 504 
L 474.824599 504 
L 474.824599 457.706621 
L 470.647059 457.706621 
z
" style="opacity:0.5;"/>
   </g>
   <g id="patch_238">
    <path clip-path="url(#pbb5a3ab8b7)" d="M 474.824599 504 
L 479.002139 504 
L 479.002139 423.758143 
L 474.824599 423.758143 
z
" style="opacity:0.5;"/>
   </g>
   <g id="patch_239">
    <path clip-path="url(#pbb5a3ab8b7)" d="M 479.002139 504 
L 483.179679 504 
L 483.179679 426.844369 
L 479.002139 426.844369 
z
" style="opacity:0.5;"/>
   </g>
   <g id="patch_240">
    <path clip-path="url(#pbb5a3ab8b7)" d="M 483.179679 504 
L 487.357219 504 
L 487.357219 377.464765 
L 483.179679 377.464765 
z
" style="opacity:0.5;"/>
   </g>
   <g id="patch_241">
    <path clip-path="url(#pbb5a3ab8b7)" d="M 487.357219 504 
L 491.534759 504 
L 491.534759 386.72344 
L 487.357219 386.72344 
z
" style="opacity:0.5;"/>
   </g>
   <g id="patch_242">
    <path clip-path="url(#pbb5a3ab8b7)" d="M 491.534759 504 
L 495.712299 504 
L 495.712299 368.206089 
L 491.534759 368.206089 
z
" style="opacity:0.5;"/>
   </g>
   <g id="patch_243">
    <path clip-path="url(#pbb5a3ab8b7)" d="M 495.712299 504 
L 499.88984 504 
L 499.88984 386.72344 
L 495.712299 386.72344 
z
" style="opacity:0.5;"/>
   </g>
   <g id="patch_244">
    <path clip-path="url(#pbb5a3ab8b7)" d="M 499.88984 504 
L 504.06738 504 
L 504.06738 389.809666 
L 499.88984 389.809666 
z
" style="opacity:0.5;"/>
   </g>
   <g id="patch_245">
    <path clip-path="url(#pbb5a3ab8b7)" d="M 504.06738 504 
L 508.24492 504 
L 508.24492 349.688737 
L 504.06738 349.688737 
z
" style="opacity:0.5;"/>
   </g>
   <g id="patch_246">
    <path clip-path="url(#pbb5a3ab8b7)" d="M 508.24492 504 
L 512.42246 504 
L 512.42246 337.343836 
L 508.24492 337.343836 
z
" style="opacity:0.5;"/>
   </g>
   <g id="patch_247">
    <path clip-path="url(#pbb5a3ab8b7)" d="M 512.42246 504 
L 516.6 504 
L 516.6 374.378539 
L 512.42246 374.378539 
z
" style="opacity:0.5;"/>
   </g>
   <g id="patch_248">
    <path clip-path="url(#pbb5a3ab8b7)" d="M 516.6 504 
L 520.77754 504 
L 520.77754 349.688737 
L 516.6 349.688737 
z
" style="opacity:0.5;"/>
   </g>
   <g id="patch_249">
    <path clip-path="url(#pbb5a3ab8b7)" d="M 520.77754 504 
L 524.95508 504 
L 524.95508 315.74026 
L 520.77754 315.74026 
z
" style="opacity:0.5;"/>
   </g>
   <g id="patch_250">
    <path clip-path="url(#pbb5a3ab8b7)" d="M 524.95508 504 
L 529.13262 504 
L 529.13262 355.861188 
L 524.95508 355.861188 
z
" style="opacity:0.5;"/>
   </g>
   <g id="patch_251">
    <path clip-path="url(#pbb5a3ab8b7)" d="M 529.13262 504 
L 533.31016 504 
L 533.31016 392.895891 
L 529.13262 392.895891 
z
" style="opacity:0.5;"/>
   </g>
   <g id="patch_252">
    <path clip-path="url(#pbb5a3ab8b7)" d="M 533.31016 504 
L 537.487701 504 
L 537.487701 386.72344 
L 533.31016 386.72344 
z
" style="opacity:0.5;"/>
   </g>
   <g id="patch_253">
    <path clip-path="url(#pbb5a3ab8b7)" d="M 537.487701 504 
L 541.665241 504 
L 541.665241 383.637215 
L 537.487701 383.637215 
z
" style="opacity:0.5;"/>
   </g>
   <g id="patch_254">
    <path clip-path="url(#pbb5a3ab8b7)" d="M 541.665241 504 
L 545.842781 504 
L 545.842781 399.068341 
L 541.665241 399.068341 
z
" style="opacity:0.5;"/>
   </g>
   <g id="patch_255">
    <path clip-path="url(#pbb5a3ab8b7)" d="M 545.842781 504 
L 550.020321 504 
L 550.020321 371.292314 
L 545.842781 371.292314 
z
" style="opacity:0.5;"/>
   </g>
   <g id="patch_256">
    <path clip-path="url(#pbb5a3ab8b7)" d="M 550.020321 504 
L 554.197861 504 
L 554.197861 417.585693 
L 550.020321 417.585693 
z
" style="opacity:0.5;"/>
   </g>
   <g id="patch_257">
    <path clip-path="url(#pbb5a3ab8b7)" d="M 554.197861 504 
L 558.375401 504 
L 558.375401 429.930594 
L 554.197861 429.930594 
z
" style="opacity:0.5;"/>
   </g>
   <g id="patch_258">
    <path clip-path="url(#pbb5a3ab8b7)" d="M 558.375401 504 
L 562.552941 504 
L 562.552941 423.758143 
L 558.375401 423.758143 
z
" style="opacity:0.5;"/>
   </g>
   <g id="patch_259">
    <path clip-path="url(#pbb5a3ab8b7)" d="M 562.552941 504 
L 566.730481 504 
L 566.730481 445.36172 
L 562.552941 445.36172 
z
" style="opacity:0.5;"/>
   </g>
   <g id="patch_260">
    <path clip-path="url(#pbb5a3ab8b7)" d="M 566.730481 504 
L 570.908021 504 
L 570.908021 463.879072 
L 566.730481 463.879072 
z
" style="opacity:0.5;"/>
   </g>
   <g id="patch_261">
    <path clip-path="url(#pbb5a3ab8b7)" d="M 570.908021 504 
L 575.085561 504 
L 575.085561 476.223973 
L 570.908021 476.223973 
z
" style="opacity:0.5;"/>
   </g>
   <g id="patch_262">
    <path clip-path="url(#pbb5a3ab8b7)" d="M 575.085561 504 
L 579.263102 504 
L 579.263102 454.620396 
L 575.085561 454.620396 
z
" style="opacity:0.5;"/>
   </g>
   <g id="patch_263">
    <path clip-path="url(#pbb5a3ab8b7)" d="M 579.263102 504 
L 583.440642 504 
L 583.440642 454.620396 
L 579.263102 454.620396 
z
" style="opacity:0.5;"/>
   </g>
   <g id="patch_264">
    <path clip-path="url(#pbb5a3ab8b7)" d="M 583.440642 504 
L 587.618182 504 
L 587.618182 485.482648 
L 583.440642 485.482648 
z
" style="opacity:0.5;"/>
   </g>
   <g id="patch_265">
    <path clip-path="url(#pbb5a3ab8b7)" d="M 587.618182 504 
L 591.795722 504 
L 591.795722 488.568874 
L 587.618182 488.568874 
z
" style="opacity:0.5;"/>
   </g>
   <g id="patch_266">
    <path clip-path="url(#pbb5a3ab8b7)" d="M 591.795722 504 
L 595.973262 504 
L 595.973262 485.482648 
L 591.795722 485.482648 
z
" style="opacity:0.5;"/>
   </g>
   <g id="patch_267">
    <path clip-path="url(#pbb5a3ab8b7)" d="M 595.973262 504 
L 600.150802 504 
L 600.150802 500.913775 
L 595.973262 500.913775 
z
" style="opacity:0.5;"/>
   </g>
   <g id="patch_268">
    <path clip-path="url(#pbb5a3ab8b7)" d="M 600.150802 504 
L 604.328342 504 
L 604.328342 500.913775 
L 600.150802 500.913775 
z
" style="opacity:0.5;"/>
   </g>
   <g id="patch_269">
    <path clip-path="url(#pbb5a3ab8b7)" d="M 604.328342 504 
L 608.505882 504 
L 608.505882 500.913775 
L 604.328342 500.913775 
z
" style="opacity:0.5;"/>
   </g>
   <g id="patch_270">
    <path clip-path="url(#pbb5a3ab8b7)" d="M 608.505882 504 
L 612.683422 504 
L 612.683422 504 
L 608.505882 504 
z
" style="opacity:0.5;"/>
   </g>
   <g id="patch_271">
    <path clip-path="url(#pbb5a3ab8b7)" d="M 612.683422 504 
L 616.860963 504 
L 616.860963 504 
L 612.683422 504 
z
" style="opacity:0.5;"/>
   </g>
   <g id="patch_272">
    <path clip-path="url(#pbb5a3ab8b7)" d="M 616.860963 504 
L 621.038503 504 
L 621.038503 494.741324 
L 616.860963 494.741324 
z
" style="opacity:0.5;"/>
   </g>
   <g id="matplotlib.axis_9">
    <g id="xtick_17">
     <g id="line2d_44">
      <g>
       <use style="stroke:#000000;stroke-width:0.8;" x="417.150862" xlink:href="#m72592c08ba" y="504"/>
      </g>
     </g>
     <g id="text_44">
      <!-- −3 -->
      <g transform="translate(409.779769 518.598437)scale(0.1 -0.1)">
       <use xlink:href="#DejaVuSans-8722"/>
       <use x="83.789062" xlink:href="#DejaVuSans-51"/>
      </g>
     </g>
    </g>
    <g id="xtick_18">
     <g id="line2d_45">
      <g>
       <use style="stroke:#000000;stroke-width:0.8;" x="451.07747" xlink:href="#m72592c08ba" y="504"/>
      </g>
     </g>
     <g id="text_45">
      <!-- −2 -->
      <g transform="translate(443.706377 518.598437)scale(0.1 -0.1)">
       <use xlink:href="#DejaVuSans-8722"/>
       <use x="83.789062" xlink:href="#DejaVuSans-50"/>
      </g>
     </g>
    </g>
    <g id="xtick_19">
     <g id="line2d_46">
      <g>
       <use style="stroke:#000000;stroke-width:0.8;" x="485.004078" xlink:href="#m72592c08ba" y="504"/>
      </g>
     </g>
     <g id="text_46">
      <!-- −1 -->
      <g transform="translate(477.632985 518.598437)scale(0.1 -0.1)">
       <use xlink:href="#DejaVuSans-8722"/>
       <use x="83.789062" xlink:href="#DejaVuSans-49"/>
      </g>
     </g>
    </g>
    <g id="xtick_20">
     <g id="line2d_47">
      <g>
       <use style="stroke:#000000;stroke-width:0.8;" x="518.930686" xlink:href="#m72592c08ba" y="504"/>
      </g>
     </g>
     <g id="text_47">
      <!-- 0 -->
      <g transform="translate(515.749436 518.598437)scale(0.1 -0.1)">
       <use xlink:href="#DejaVuSans-48"/>
      </g>
     </g>
    </g>
    <g id="xtick_21">
     <g id="line2d_48">
      <g>
       <use style="stroke:#000000;stroke-width:0.8;" x="552.857294" xlink:href="#m72592c08ba" y="504"/>
      </g>
     </g>
     <g id="text_48">
      <!-- 1 -->
      <g transform="translate(549.676044 518.598437)scale(0.1 -0.1)">
       <use xlink:href="#DejaVuSans-49"/>
      </g>
     </g>
    </g>
    <g id="xtick_22">
     <g id="line2d_49">
      <g>
       <use style="stroke:#000000;stroke-width:0.8;" x="586.783902" xlink:href="#m72592c08ba" y="504"/>
      </g>
     </g>
     <g id="text_49">
      <!-- 2 -->
      <g transform="translate(583.602652 518.598437)scale(0.1 -0.1)">
       <use xlink:href="#DejaVuSans-50"/>
      </g>
     </g>
    </g>
    <g id="xtick_23">
     <g id="line2d_50">
      <g>
       <use style="stroke:#000000;stroke-width:0.8;" x="620.71051" xlink:href="#m72592c08ba" y="504"/>
      </g>
     </g>
     <g id="text_50">
      <!-- 3 -->
      <g transform="translate(617.52926 518.598437)scale(0.1 -0.1)">
       <use xlink:href="#DejaVuSans-51"/>
      </g>
     </g>
    </g>
   </g>
   <g id="matplotlib.axis_10">
    <g id="ytick_28">
     <g id="line2d_51">
      <g>
       <use style="stroke:#000000;stroke-width:0.8;" x="401.717647" xlink:href="#mebeff8e32b" y="504"/>
      </g>
     </g>
     <g id="text_51">
      <!-- 0 -->
      <g transform="translate(388.355147 507.799219)scale(0.1 -0.1)">
       <use xlink:href="#DejaVuSans-48"/>
      </g>
     </g>
    </g>
    <g id="ytick_29">
     <g id="line2d_52">
      <g>
       <use style="stroke:#000000;stroke-width:0.8;" x="401.717647" xlink:href="#mebeff8e32b" y="473.137747"/>
      </g>
     </g>
     <g id="text_52">
      <!-- 10 -->
      <g transform="translate(381.992647 476.936966)scale(0.1 -0.1)">
       <use xlink:href="#DejaVuSans-49"/>
       <use x="63.623047" xlink:href="#DejaVuSans-48"/>
      </g>
     </g>
    </g>
    <g id="ytick_30">
     <g id="line2d_53">
      <g>
       <use style="stroke:#000000;stroke-width:0.8;" x="401.717647" xlink:href="#mebeff8e32b" y="442.275495"/>
      </g>
     </g>
     <g id="text_53">
      <!-- 20 -->
      <g transform="translate(381.992647 446.074714)scale(0.1 -0.1)">
       <use xlink:href="#DejaVuSans-50"/>
       <use x="63.623047" xlink:href="#DejaVuSans-48"/>
      </g>
     </g>
    </g>
    <g id="ytick_31">
     <g id="line2d_54">
      <g>
       <use style="stroke:#000000;stroke-width:0.8;" x="401.717647" xlink:href="#mebeff8e32b" y="411.413242"/>
      </g>
     </g>
     <g id="text_54">
      <!-- 30 -->
      <g transform="translate(381.992647 415.212461)scale(0.1 -0.1)">
       <use xlink:href="#DejaVuSans-51"/>
       <use x="63.623047" xlink:href="#DejaVuSans-48"/>
      </g>
     </g>
    </g>
    <g id="ytick_32">
     <g id="line2d_55">
      <g>
       <use style="stroke:#000000;stroke-width:0.8;" x="401.717647" xlink:href="#mebeff8e32b" y="380.55099"/>
      </g>
     </g>
     <g id="text_55">
      <!-- 40 -->
      <g transform="translate(381.992647 384.350209)scale(0.1 -0.1)">
       <use xlink:href="#DejaVuSans-52"/>
       <use x="63.623047" xlink:href="#DejaVuSans-48"/>
      </g>
     </g>
    </g>
    <g id="ytick_33">
     <g id="line2d_56">
      <g>
       <use style="stroke:#000000;stroke-width:0.8;" x="401.717647" xlink:href="#mebeff8e32b" y="349.688737"/>
      </g>
     </g>
     <g id="text_56">
      <!-- 50 -->
      <g transform="translate(381.992647 353.487956)scale(0.1 -0.1)">
       <use xlink:href="#DejaVuSans-53"/>
       <use x="63.623047" xlink:href="#DejaVuSans-48"/>
      </g>
     </g>
    </g>
    <g id="ytick_34">
     <g id="line2d_57">
      <g>
       <use style="stroke:#000000;stroke-width:0.8;" x="401.717647" xlink:href="#mebeff8e32b" y="318.826485"/>
      </g>
     </g>
     <g id="text_57">
      <!-- 60 -->
      <g transform="translate(381.992647 322.625704)scale(0.1 -0.1)">
       <use xlink:href="#DejaVuSans-54"/>
       <use x="63.623047" xlink:href="#DejaVuSans-48"/>
      </g>
     </g>
    </g>
   </g>
   <g id="patch_273">
    <path d="M 401.717647 504 
L 401.717647 306.327273 
" style="fill:none;stroke:#000000;stroke-linecap:square;stroke-linejoin:miter;stroke-width:0.8;"/>
   </g>
   <g id="patch_274">
    <path d="M 631.482353 504 
L 631.482353 306.327273 
" style="fill:none;stroke:#000000;stroke-linecap:square;stroke-linejoin:miter;stroke-width:0.8;"/>
   </g>
   <g id="patch_275">
    <path d="M 401.717647 504 
L 631.482353 504 
" style="fill:none;stroke:#000000;stroke-linecap:square;stroke-linejoin:miter;stroke-width:0.8;"/>
   </g>
   <g id="patch_276">
    <path d="M 401.717647 306.327273 
L 631.482353 306.327273 
" style="fill:none;stroke:#000000;stroke-linecap:square;stroke-linejoin:miter;stroke-width:0.8;"/>
   </g>
  </g>
  <g id="axes_6">
   <g id="patch_277">
    <path d="M 677.435294 504 
L 907.2 504 
L 907.2 306.327273 
L 677.435294 306.327273 
z
" style="fill:#ffffff;"/>
   </g>
   <g id="patch_278">
    <path clip-path="url(#pe6beb6ea1b)" d="M 687.879144 504 
L 692.056684 504 
L 692.056684 500.577096 
L 687.879144 500.577096 
z
" style="opacity:0.5;"/>
   </g>
   <g id="patch_279">
    <path clip-path="url(#pe6beb6ea1b)" d="M 692.056684 504 
L 696.234225 504 
L 696.234225 497.154191 
L 692.056684 497.154191 
z
" style="opacity:0.5;"/>
   </g>
   <g id="patch_280">
    <path clip-path="url(#pe6beb6ea1b)" d="M 696.234225 504 
L 700.411765 504 
L 700.411765 497.154191 
L 696.234225 497.154191 
z
" style="opacity:0.5;"/>
   </g>
   <g id="patch_281">
    <path clip-path="url(#pe6beb6ea1b)" d="M 700.411765 504 
L 704.589305 504 
L 704.589305 497.154191 
L 700.411765 497.154191 
z
" style="opacity:0.5;"/>
   </g>
   <g id="patch_282">
    <path clip-path="url(#pe6beb6ea1b)" d="M 704.589305 504 
L 708.766845 504 
L 708.766845 486.885478 
L 704.589305 486.885478 
z
" style="opacity:0.5;"/>
   </g>
   <g id="patch_283">
    <path clip-path="url(#pe6beb6ea1b)" d="M 708.766845 504 
L 712.944385 504 
L 712.944385 490.308383 
L 708.766845 490.308383 
z
" style="opacity:0.5;"/>
   </g>
   <g id="patch_284">
    <path clip-path="url(#pe6beb6ea1b)" d="M 712.944385 504 
L 717.121925 504 
L 717.121925 493.731287 
L 712.944385 493.731287 
z
" style="opacity:0.5;"/>
   </g>
   <g id="patch_285">
    <path clip-path="url(#pe6beb6ea1b)" d="M 717.121925 504 
L 721.299465 504 
L 721.299465 483.462574 
L 717.121925 483.462574 
z
" style="opacity:0.5;"/>
   </g>
   <g id="patch_286">
    <path clip-path="url(#pe6beb6ea1b)" d="M 721.299465 504 
L 725.477005 504 
L 725.477005 466.348052 
L 721.299465 466.348052 
z
" style="opacity:0.5;"/>
   </g>
   <g id="patch_287">
    <path clip-path="url(#pe6beb6ea1b)" d="M 725.477005 504 
L 729.654545 504 
L 729.654545 452.656434 
L 725.477005 452.656434 
z
" style="opacity:0.5;"/>
   </g>
   <g id="patch_288">
    <path clip-path="url(#pe6beb6ea1b)" d="M 729.654545 504 
L 733.832086 504 
L 733.832086 469.770956 
L 729.654545 469.770956 
z
" style="opacity:0.5;"/>
   </g>
   <g id="patch_289">
    <path clip-path="url(#pe6beb6ea1b)" d="M 733.832086 504 
L 738.009626 504 
L 738.009626 438.964817 
L 733.832086 438.964817 
z
" style="opacity:0.5;"/>
   </g>
   <g id="patch_290">
    <path clip-path="url(#pe6beb6ea1b)" d="M 738.009626 504 
L 742.187166 504 
L 742.187166 438.964817 
L 738.009626 438.964817 
z
" style="opacity:0.5;"/>
   </g>
   <g id="patch_291">
    <path clip-path="url(#pe6beb6ea1b)" d="M 742.187166 504 
L 746.364706 504 
L 746.364706 428.696104 
L 742.187166 428.696104 
z
" style="opacity:0.5;"/>
   </g>
   <g id="patch_292">
    <path clip-path="url(#pe6beb6ea1b)" d="M 746.364706 504 
L 750.542246 504 
L 750.542246 415.004486 
L 746.364706 415.004486 
z
" style="opacity:0.5;"/>
   </g>
   <g id="patch_293">
    <path clip-path="url(#pe6beb6ea1b)" d="M 750.542246 504 
L 754.719786 504 
L 754.719786 401.312869 
L 750.542246 401.312869 
z
" style="opacity:0.5;"/>
   </g>
   <g id="patch_294">
    <path clip-path="url(#pe6beb6ea1b)" d="M 754.719786 504 
L 758.897326 504 
L 758.897326 391.044156 
L 754.719786 391.044156 
z
" style="opacity:0.5;"/>
   </g>
   <g id="patch_295">
    <path clip-path="url(#pe6beb6ea1b)" d="M 758.897326 504 
L 763.074866 504 
L 763.074866 411.581582 
L 758.897326 411.581582 
z
" style="opacity:0.5;"/>
   </g>
   <g id="patch_296">
    <path clip-path="url(#pe6beb6ea1b)" d="M 763.074866 504 
L 767.252406 504 
L 767.252406 377.352538 
L 763.074866 377.352538 
z
" style="opacity:0.5;"/>
   </g>
   <g id="patch_297">
    <path clip-path="url(#pe6beb6ea1b)" d="M 767.252406 504 
L 771.429947 504 
L 771.429947 387.621251 
L 767.252406 387.621251 
z
" style="opacity:0.5;"/>
   </g>
   <g id="patch_298">
    <path clip-path="url(#pe6beb6ea1b)" d="M 771.429947 504 
L 775.607487 504 
L 775.607487 346.546399 
L 771.429947 346.546399 
z
" style="opacity:0.5;"/>
   </g>
   <g id="patch_299">
    <path clip-path="url(#pe6beb6ea1b)" d="M 775.607487 504 
L 779.785027 504 
L 779.785027 367.083825 
L 775.607487 367.083825 
z
" style="opacity:0.5;"/>
   </g>
   <g id="patch_300">
    <path clip-path="url(#pe6beb6ea1b)" d="M 779.785027 504 
L 783.962567 504 
L 783.962567 315.74026 
L 779.785027 315.74026 
z
" style="opacity:0.5;"/>
   </g>
   <g id="patch_301">
    <path clip-path="url(#pe6beb6ea1b)" d="M 783.962567 504 
L 788.140107 504 
L 788.140107 329.431877 
L 783.962567 329.431877 
z
" style="opacity:0.5;"/>
   </g>
   <g id="patch_302">
    <path clip-path="url(#pe6beb6ea1b)" d="M 788.140107 504 
L 792.317647 504 
L 792.317647 356.815112 
L 788.140107 356.815112 
z
" style="opacity:0.5;"/>
   </g>
   <g id="patch_303">
    <path clip-path="url(#pe6beb6ea1b)" d="M 792.317647 504 
L 796.495187 504 
L 796.495187 380.775443 
L 792.317647 380.775443 
z
" style="opacity:0.5;"/>
   </g>
   <g id="patch_304">
    <path clip-path="url(#pe6beb6ea1b)" d="M 796.495187 504 
L 800.672727 504 
L 800.672727 346.546399 
L 796.495187 346.546399 
z
" style="opacity:0.5;"/>
   </g>
   <g id="patch_305">
    <path clip-path="url(#pe6beb6ea1b)" d="M 800.672727 504 
L 804.850267 504 
L 804.850267 360.238017 
L 800.672727 360.238017 
z
" style="opacity:0.5;"/>
   </g>
   <g id="patch_306">
    <path clip-path="url(#pe6beb6ea1b)" d="M 804.850267 504 
L 809.027807 504 
L 809.027807 363.660921 
L 804.850267 363.660921 
z
" style="opacity:0.5;"/>
   </g>
   <g id="patch_307">
    <path clip-path="url(#pe6beb6ea1b)" d="M 809.027807 504 
L 813.205348 504 
L 813.205348 377.352538 
L 809.027807 377.352538 
z
" style="opacity:0.5;"/>
   </g>
   <g id="patch_308">
    <path clip-path="url(#pe6beb6ea1b)" d="M 813.205348 504 
L 817.382888 504 
L 817.382888 363.660921 
L 813.205348 363.660921 
z
" style="opacity:0.5;"/>
   </g>
   <g id="patch_309">
    <path clip-path="url(#pe6beb6ea1b)" d="M 817.382888 504 
L 821.560428 504 
L 821.560428 404.735773 
L 817.382888 404.735773 
z
" style="opacity:0.5;"/>
   </g>
   <g id="patch_310">
    <path clip-path="url(#pe6beb6ea1b)" d="M 821.560428 504 
L 825.737968 504 
L 825.737968 353.392208 
L 821.560428 353.392208 
z
" style="opacity:0.5;"/>
   </g>
   <g id="patch_311">
    <path clip-path="url(#pe6beb6ea1b)" d="M 825.737968 504 
L 829.915508 504 
L 829.915508 401.312869 
L 825.737968 401.312869 
z
" style="opacity:0.5;"/>
   </g>
   <g id="patch_312">
    <path clip-path="url(#pe6beb6ea1b)" d="M 829.915508 504 
L 834.093048 504 
L 834.093048 421.850295 
L 829.915508 421.850295 
z
" style="opacity:0.5;"/>
   </g>
   <g id="patch_313">
    <path clip-path="url(#pe6beb6ea1b)" d="M 834.093048 504 
L 838.270588 504 
L 838.270588 462.925148 
L 834.093048 462.925148 
z
" style="opacity:0.5;"/>
   </g>
   <g id="patch_314">
    <path clip-path="url(#pe6beb6ea1b)" d="M 838.270588 504 
L 842.448128 504 
L 842.448128 459.502243 
L 838.270588 459.502243 
z
" style="opacity:0.5;"/>
   </g>
   <g id="patch_315">
    <path clip-path="url(#pe6beb6ea1b)" d="M 842.448128 504 
L 846.625668 504 
L 846.625668 438.964817 
L 842.448128 438.964817 
z
" style="opacity:0.5;"/>
   </g>
   <g id="patch_316">
    <path clip-path="url(#pe6beb6ea1b)" d="M 846.625668 504 
L 850.803209 504 
L 850.803209 466.348052 
L 846.625668 466.348052 
z
" style="opacity:0.5;"/>
   </g>
   <g id="patch_317">
    <path clip-path="url(#pe6beb6ea1b)" d="M 850.803209 504 
L 854.980749 504 
L 854.980749 476.616765 
L 850.803209 476.616765 
z
" style="opacity:0.5;"/>
   </g>
   <g id="patch_318">
    <path clip-path="url(#pe6beb6ea1b)" d="M 854.980749 504 
L 859.158289 504 
L 859.158289 486.885478 
L 854.980749 486.885478 
z
" style="opacity:0.5;"/>
   </g>
   <g id="patch_319">
    <path clip-path="url(#pe6beb6ea1b)" d="M 859.158289 504 
L 863.335829 504 
L 863.335829 483.462574 
L 859.158289 483.462574 
z
" style="opacity:0.5;"/>
   </g>
   <g id="patch_320">
    <path clip-path="url(#pe6beb6ea1b)" d="M 863.335829 504 
L 867.513369 504 
L 867.513369 493.731287 
L 863.335829 493.731287 
z
" style="opacity:0.5;"/>
   </g>
   <g id="patch_321">
    <path clip-path="url(#pe6beb6ea1b)" d="M 867.513369 504 
L 871.690909 504 
L 871.690909 500.577096 
L 867.513369 500.577096 
z
" style="opacity:0.5;"/>
   </g>
   <g id="patch_322">
    <path clip-path="url(#pe6beb6ea1b)" d="M 871.690909 504 
L 875.868449 504 
L 875.868449 493.731287 
L 871.690909 493.731287 
z
" style="opacity:0.5;"/>
   </g>
   <g id="patch_323">
    <path clip-path="url(#pe6beb6ea1b)" d="M 875.868449 504 
L 880.045989 504 
L 880.045989 500.577096 
L 875.868449 500.577096 
z
" style="opacity:0.5;"/>
   </g>
   <g id="patch_324">
    <path clip-path="url(#pe6beb6ea1b)" d="M 880.045989 504 
L 884.223529 504 
L 884.223529 500.577096 
L 880.045989 500.577096 
z
" style="opacity:0.5;"/>
   </g>
   <g id="patch_325">
    <path clip-path="url(#pe6beb6ea1b)" d="M 884.223529 504 
L 888.40107 504 
L 888.40107 500.577096 
L 884.223529 500.577096 
z
" style="opacity:0.5;"/>
   </g>
   <g id="patch_326">
    <path clip-path="url(#pe6beb6ea1b)" d="M 888.40107 504 
L 892.57861 504 
L 892.57861 500.577096 
L 888.40107 500.577096 
z
" style="opacity:0.5;"/>
   </g>
   <g id="patch_327">
    <path clip-path="url(#pe6beb6ea1b)" d="M 892.57861 504 
L 896.75615 504 
L 896.75615 497.154191 
L 892.57861 497.154191 
z
" style="opacity:0.5;"/>
   </g>
   <g id="matplotlib.axis_11">
    <g id="xtick_24">
     <g id="line2d_58">
      <g>
       <use style="stroke:#000000;stroke-width:0.8;" x="682.527977" xlink:href="#m72592c08ba" y="504"/>
      </g>
     </g>
     <g id="text_58">
      <!-- −3 -->
      <g transform="translate(675.156883 518.598437)scale(0.1 -0.1)">
       <use xlink:href="#DejaVuSans-8722"/>
       <use x="83.789062" xlink:href="#DejaVuSans-51"/>
      </g>
     </g>
    </g>
    <g id="xtick_25">
     <g id="line2d_59">
      <g>
       <use style="stroke:#000000;stroke-width:0.8;" x="718.092251" xlink:href="#m72592c08ba" y="504"/>
      </g>
     </g>
     <g id="text_59">
      <!-- −2 -->
      <g transform="translate(710.721157 518.598437)scale(0.1 -0.1)">
       <use xlink:href="#DejaVuSans-8722"/>
       <use x="83.789062" xlink:href="#DejaVuSans-50"/>
      </g>
     </g>
    </g>
    <g id="xtick_26">
     <g id="line2d_60">
      <g>
       <use style="stroke:#000000;stroke-width:0.8;" x="753.656524" xlink:href="#m72592c08ba" y="504"/>
      </g>
     </g>
     <g id="text_60">
      <!-- −1 -->
      <g transform="translate(746.285431 518.598437)scale(0.1 -0.1)">
       <use xlink:href="#DejaVuSans-8722"/>
       <use x="83.789062" xlink:href="#DejaVuSans-49"/>
      </g>
     </g>
    </g>
    <g id="xtick_27">
     <g id="line2d_61">
      <g>
       <use style="stroke:#000000;stroke-width:0.8;" x="789.220798" xlink:href="#m72592c08ba" y="504"/>
      </g>
     </g>
     <g id="text_61">
      <!-- 0 -->
      <g transform="translate(786.039548 518.598437)scale(0.1 -0.1)">
       <use xlink:href="#DejaVuSans-48"/>
      </g>
     </g>
    </g>
    <g id="xtick_28">
     <g id="line2d_62">
      <g>
       <use style="stroke:#000000;stroke-width:0.8;" x="824.785072" xlink:href="#m72592c08ba" y="504"/>
      </g>
     </g>
     <g id="text_62">
      <!-- 1 -->
      <g transform="translate(821.603822 518.598437)scale(0.1 -0.1)">
       <use xlink:href="#DejaVuSans-49"/>
      </g>
     </g>
    </g>
    <g id="xtick_29">
     <g id="line2d_63">
      <g>
       <use style="stroke:#000000;stroke-width:0.8;" x="860.349345" xlink:href="#m72592c08ba" y="504"/>
      </g>
     </g>
     <g id="text_63">
      <!-- 2 -->
      <g transform="translate(857.168095 518.598437)scale(0.1 -0.1)">
       <use xlink:href="#DejaVuSans-50"/>
      </g>
     </g>
    </g>
    <g id="xtick_30">
     <g id="line2d_64">
      <g>
       <use style="stroke:#000000;stroke-width:0.8;" x="895.913619" xlink:href="#m72592c08ba" y="504"/>
      </g>
     </g>
     <g id="text_64">
      <!-- 3 -->
      <g transform="translate(892.732369 518.598437)scale(0.1 -0.1)">
       <use xlink:href="#DejaVuSans-51"/>
      </g>
     </g>
    </g>
   </g>
   <g id="matplotlib.axis_12">
    <g id="ytick_35">
     <g id="line2d_65">
      <g>
       <use style="stroke:#000000;stroke-width:0.8;" x="677.435294" xlink:href="#mebeff8e32b" y="504"/>
      </g>
     </g>
     <g id="text_65">
      <!-- 0 -->
      <g transform="translate(664.072794 507.799219)scale(0.1 -0.1)">
       <use xlink:href="#DejaVuSans-48"/>
      </g>
     </g>
    </g>
    <g id="ytick_36">
     <g id="line2d_66">
      <g>
       <use style="stroke:#000000;stroke-width:0.8;" x="677.435294" xlink:href="#mebeff8e32b" y="469.770956"/>
      </g>
     </g>
     <g id="text_66">
      <!-- 10 -->
      <g transform="translate(657.710294 473.570175)scale(0.1 -0.1)">
       <use xlink:href="#DejaVuSans-49"/>
       <use x="63.623047" xlink:href="#DejaVuSans-48"/>
      </g>
     </g>
    </g>
    <g id="ytick_37">
     <g id="line2d_67">
      <g>
       <use style="stroke:#000000;stroke-width:0.8;" x="677.435294" xlink:href="#mebeff8e32b" y="435.541913"/>
      </g>
     </g>
     <g id="text_67">
      <!-- 20 -->
      <g transform="translate(657.710294 439.341131)scale(0.1 -0.1)">
       <use xlink:href="#DejaVuSans-50"/>
       <use x="63.623047" xlink:href="#DejaVuSans-48"/>
      </g>
     </g>
    </g>
    <g id="ytick_38">
     <g id="line2d_68">
      <g>
       <use style="stroke:#000000;stroke-width:0.8;" x="677.435294" xlink:href="#mebeff8e32b" y="401.312869"/>
      </g>
     </g>
     <g id="text_68">
      <!-- 30 -->
      <g transform="translate(657.710294 405.112088)scale(0.1 -0.1)">
       <use xlink:href="#DejaVuSans-51"/>
       <use x="63.623047" xlink:href="#DejaVuSans-48"/>
      </g>
     </g>
    </g>
    <g id="ytick_39">
     <g id="line2d_69">
      <g>
       <use style="stroke:#000000;stroke-width:0.8;" x="677.435294" xlink:href="#mebeff8e32b" y="367.083825"/>
      </g>
     </g>
     <g id="text_69">
      <!-- 40 -->
      <g transform="translate(657.710294 370.883044)scale(0.1 -0.1)">
       <use xlink:href="#DejaVuSans-52"/>
       <use x="63.623047" xlink:href="#DejaVuSans-48"/>
      </g>
     </g>
    </g>
    <g id="ytick_40">
     <g id="line2d_70">
      <g>
       <use style="stroke:#000000;stroke-width:0.8;" x="677.435294" xlink:href="#mebeff8e32b" y="332.854782"/>
      </g>
     </g>
     <g id="text_70">
      <!-- 50 -->
      <g transform="translate(657.710294 336.654)scale(0.1 -0.1)">
       <use xlink:href="#DejaVuSans-53"/>
       <use x="63.623047" xlink:href="#DejaVuSans-48"/>
      </g>
     </g>
    </g>
   </g>
   <g id="patch_328">
    <path d="M 677.435294 504 
L 677.435294 306.327273 
" style="fill:none;stroke:#000000;stroke-linecap:square;stroke-linejoin:miter;stroke-width:0.8;"/>
   </g>
   <g id="patch_329">
    <path d="M 907.2 504 
L 907.2 306.327273 
" style="fill:none;stroke:#000000;stroke-linecap:square;stroke-linejoin:miter;stroke-width:0.8;"/>
   </g>
   <g id="patch_330">
    <path d="M 677.435294 504 
L 907.2 504 
" style="fill:none;stroke:#000000;stroke-linecap:square;stroke-linejoin:miter;stroke-width:0.8;"/>
   </g>
   <g id="patch_331">
    <path d="M 677.435294 306.327273 
L 907.2 306.327273 
" style="fill:none;stroke:#000000;stroke-linecap:square;stroke-linejoin:miter;stroke-width:0.8;"/>
   </g>
  </g>
 </g>
 <defs>
  <clipPath id="p1af739183d">
   <rect height="197.672727" width="229.764706" x="126" y="69.12"/>
  </clipPath>
  <clipPath id="p55ddc564ac">
   <rect height="197.672727" width="229.764706" x="401.717647" y="69.12"/>
  </clipPath>
  <clipPath id="pb76412b441">
   <rect height="197.672727" width="229.764706" x="677.435294" y="69.12"/>
  </clipPath>
  <clipPath id="p9dcaeb9078">
   <rect height="197.672727" width="229.764706" x="126" y="306.327273"/>
  </clipPath>
  <clipPath id="pbb5a3ab8b7">
   <rect height="197.672727" width="229.764706" x="401.717647" y="306.327273"/>
  </clipPath>
  <clipPath id="pe6beb6ea1b">
   <rect height="197.672727" width="229.764706" x="677.435294" y="306.327273"/>
  </clipPath>
 </defs>
</svg>
